<svg width="27" height="26" viewBox="0 0 27 26" fill="none" xmlns="http://www.w3.org/2000/svg">
<path fill-rule="evenodd" clip-rule="evenodd" d="M26.0783 9.92972C26.0772 9.90458 26.0728 9.87971 26.0653 9.85569C26.06 9.83226 26.0524 9.80942 26.0425 9.78753C26.0327 9.77188 26.0196 9.7533 26.0066 9.73601C25.9923 9.71326 25.9747 9.69272 25.9544 9.67503L25.9381 9.65514L21.7151 6.38564V2.98213C21.7143 2.6524 21.5827 2.33647 21.3491 2.10375C21.1155 1.87102 20.7991 1.74055 20.4694 1.74098H15.7116L15.6953 1.72729L13.7974 0.259832C13.5811 0.0914395 13.3149 0 13.0408 0C12.7667 0 12.5005 0.0914395 12.2843 0.259832L10.37 1.74098H5.6122C5.28266 1.74115 4.96662 1.87182 4.73317 2.10441C4.49972 2.33701 4.36789 2.65259 4.36651 2.98213V6.38564L0.140242 9.6584C0.138192 9.66584 0.133557 9.67231 0.127185 9.67666C0.109859 9.69294 0.0945282 9.71122 0.0815264 9.73112C0.0648659 9.74921 0.0506149 9.76938 0.0391316 9.79113C0.0326096 9.80808 0.0261082 9.82961 0.0195862 9.85146C0.0130642 9.88048 0.0065262 9.90493 0.00326518 9.92972L9.84451e-07 9.95548V24.7605C-0.000335438 25.0239 0.0855625 25.2803 0.244577 25.4903L0.251106 25.5014L0.260898 25.5108C0.37646 25.6617 0.524967 25.7843 0.695077 25.869C0.865187 25.9538 1.05241 25.9986 1.24247 26H24.8392C25.0298 25.9992 25.2177 25.9547 25.3884 25.8699C25.5592 25.7851 25.7082 25.6622 25.824 25.5108L25.8403 25.489C25.9992 25.279 26.0851 25.0229 26.0849 24.7595V9.95091C26.0812 9.9444 26.079 9.93717 26.0783 9.92972V9.92972ZM12.7375 0.844204C12.8233 0.775947 12.9296 0.738784 13.0392 0.738784C13.1487 0.738784 13.2551 0.775947 13.3408 0.844204L14.4985 1.74065H11.5831L12.7375 0.844204ZM1.16094 25.2604L12.7375 16.2968C12.8234 16.229 12.9297 16.1921 13.0392 16.1921C13.1486 16.1921 13.2549 16.229 13.3408 16.2968L24.9207 25.2601H1.16094V25.2604ZM25.3413 24.649L25.237 24.5674L13.7974 15.7128C13.581 15.5448 13.3148 15.4536 13.0408 15.4536C12.7668 15.4536 12.5007 15.5448 12.2843 15.7128L0.740258 24.648V10.4792L0.847857 10.5614L8.00908 16.1051C8.04738 16.1349 8.09116 16.1569 8.13797 16.1697C8.18478 16.1826 8.23367 16.1861 8.28184 16.18C8.33 16.174 8.37649 16.1585 8.41865 16.1344C8.46082 16.1104 8.49783 16.0782 8.52757 16.0399C8.55779 16.0016 8.58008 15.9577 8.59317 15.9108C8.60626 15.8638 8.60991 15.8147 8.60384 15.7663C8.59777 15.7179 8.58211 15.6713 8.55782 15.629C8.53353 15.5867 8.5011 15.5497 8.46236 15.5201L1.12181 9.83841L4.36651 7.32351V10.8226C4.36651 10.9212 4.40566 11.0157 4.47538 11.0855C4.5451 11.1552 4.63967 11.1943 4.73827 11.1943C4.83686 11.1943 4.93144 11.1552 5.00115 11.0855C5.07087 11.0157 5.11003 10.9212 5.11003 10.8226V2.98213C5.11029 2.84913 5.16331 2.72168 5.25747 2.62776C5.35164 2.53384 5.47921 2.48114 5.6122 2.48123H20.4694C20.6024 2.48114 20.73 2.53384 20.8241 2.62776C20.9183 2.72168 20.9714 2.84913 20.9716 2.98213V10.8219C20.9716 10.9205 21.0108 11.0151 21.0805 11.0848C21.1502 11.1545 21.2448 11.1937 21.3434 11.1937C21.442 11.1937 21.5365 11.1545 21.6062 11.0848C21.6759 11.0151 21.7151 10.9205 21.7151 10.8219V7.32286L24.9598 9.83776L24.8946 9.88928L17.6062 15.5308C17.5546 15.571 17.5143 15.6238 17.4892 15.6841C17.464 15.7445 17.4549 15.8103 17.4628 15.8752C17.4712 15.94 17.4969 16.0014 17.537 16.053C17.5771 16.1046 17.6303 16.1445 17.691 16.1687C17.7523 16.1931 17.8189 16.201 17.8841 16.1916C17.9494 16.1821 18.011 16.1557 18.0628 16.1149L25.3413 10.4808V24.6493V24.649ZM18.2193 10.3866V8.64423C18.2227 7.61929 17.9219 6.61639 17.355 5.76252C16.7881 4.90865 15.9805 4.24222 15.0346 3.84762C14.0886 3.45302 13.0468 3.348 12.0412 3.54586C11.0355 3.74371 10.1112 4.23554 9.38521 4.95908C8.65926 5.68261 8.16436 6.6053 7.96314 7.61029C7.76192 8.61529 7.86345 9.6574 8.25489 10.6046C8.64632 11.5519 9.31005 12.3617 10.162 12.9315C11.014 13.5013 12.0159 13.8054 13.0408 13.8054C13.139 13.8054 13.2331 13.7664 13.3025 13.697C13.3719 13.6276 13.4109 13.5335 13.4109 13.4353C13.4109 13.3371 13.3719 13.243 13.3025 13.1736C13.2331 13.1042 13.139 13.0652 13.0408 13.0652C12.167 13.0624 11.3136 12.8008 10.5885 12.3133C9.86329 11.8258 9.29886 11.1344 8.9664 10.3264C8.63394 9.51829 8.54839 8.62983 8.72055 7.77317C8.89272 6.91652 9.31484 6.13009 9.93368 5.51321C10.5525 4.89633 11.3403 4.47666 12.1975 4.30721C13.0547 4.13776 13.9429 4.22613 14.7499 4.56115C15.5569 4.89617 16.2465 5.46282 16.7317 6.18954C17.2169 6.91626 17.4758 7.77044 17.4758 8.64423V10.3866C17.4758 10.6357 17.3768 10.8746 17.2007 11.0507C17.0246 11.2268 16.7857 11.3258 16.5366 11.3258C16.2875 11.3258 16.0487 11.2268 15.8725 11.0507C15.6964 10.8746 15.5975 10.6357 15.5975 10.3866V8.64423C15.5975 8.54563 15.5583 8.45107 15.4886 8.38135C15.4188 8.31163 15.3243 8.27247 15.2257 8.27247C15.1271 8.27247 15.0325 8.31163 14.9628 8.38135C14.8931 8.45107 14.8539 8.54563 14.8539 8.64423C14.855 9.00306 14.7496 9.35415 14.5511 9.65305C14.3525 9.95194 14.0697 10.1852 13.7385 10.3233C13.4073 10.4614 13.0426 10.4981 12.6905 10.4287C12.3384 10.3594 12.0148 10.1872 11.7607 9.93381C11.5066 9.68046 11.3333 9.3574 11.2629 9.00554C11.1925 8.65368 11.2281 8.28883 11.3652 7.9572C11.5023 7.62558 11.7346 7.34207 12.0329 7.1426C12.3312 6.94312 12.682 6.83665 13.0408 6.83665C13.0894 6.83665 13.1375 6.82707 13.1824 6.80847C13.2273 6.78987 13.2682 6.7626 13.3025 6.72823C13.3369 6.69386 13.3641 6.65307 13.3827 6.60816C13.4013 6.56326 13.4109 6.51513 13.4109 6.46652C13.4109 6.41791 13.4013 6.36978 13.3827 6.32488C13.3641 6.27997 13.3369 6.23917 13.3025 6.2048C13.2682 6.17043 13.2273 6.14317 13.1824 6.12456C13.1375 6.10596 13.0894 6.09639 13.0408 6.09639H13.0343C12.6197 6.0968 12.2114 6.19834 11.8449 6.39219C11.4785 6.58604 11.1648 6.86636 10.9311 7.20885C10.6974 7.55133 10.5508 7.94565 10.504 8.35761C10.4571 8.76956 10.5115 9.18672 10.6624 9.57291C10.8132 9.95911 11.0559 10.3027 11.3696 10.5739C11.6832 10.845 12.0583 11.0356 12.4622 11.1291C12.8661 11.2225 13.2868 11.216 13.6876 11.1102C14.0885 11.0043 14.4575 10.8023 14.7626 10.5216L14.8605 10.4339L14.8735 10.5643C14.9183 10.992 15.1256 11.3861 15.4526 11.6653C15.7797 11.9445 16.2014 12.0875 16.6308 12.0647C17.0602 12.0418 17.4645 11.855 17.7601 11.5427C18.0557 11.2305 18.2201 10.8166 18.2193 10.3866Z" fill="#6A6A6A"/>
</svg>
