<svg width="22" height="30" viewBox="0 0 22 30" fill="none" xmlns="http://www.w3.org/2000/svg">
<path fill-rule="evenodd" clip-rule="evenodd" d="M10.6875 0C7.85047 0.00685195 5.13201 1.1387 3.12844 3.14727C1.12487 5.15583 -0.000206853 7.8771 2.85264e-08 10.7141C2.85264e-08 18.2141 9.9191 29.3737 10.3417 29.8451C10.3854 29.8938 10.4389 29.9328 10.4986 29.9595C10.5584 29.9862 10.6231 30 10.6886 30C10.7541 30 10.8188 29.9862 10.8785 29.9595C10.9383 29.9328 10.9918 29.8938 11.0355 29.8451C11.4547 29.3737 21.375 18.2137 21.375 10.7141C21.3752 7.8771 20.2501 5.15583 18.2465 3.14727C16.2429 1.1387 13.5245 0.00685195 10.6875 0V0ZM10.6875 28.8281L10.2701 28.3316C8.07937 25.7227 0.932623 16.7441 0.932623 10.7141C0.924648 9.42787 1.17111 8.15274 1.65781 6.96211C2.14451 5.77148 2.86185 4.68886 3.76855 3.77652C4.67525 2.86418 5.7534 2.14014 6.94099 1.64607C8.12857 1.152 9.40215 0.897638 10.6884 0.897638C11.9747 0.897638 13.2482 1.152 14.4358 1.64607C15.6234 2.14014 16.7016 2.86418 17.6083 3.77652C18.515 4.68886 19.2323 5.77148 19.719 6.96211C20.2057 8.15274 20.4522 9.42787 20.4442 10.7141C20.4442 16.7426 13.2963 25.7227 11.1067 28.3316L10.6875 28.8281ZM10.6875 5.59499C9.67447 5.59247 8.6835 5.89055 7.83999 6.45151C6.99648 7.01247 6.33835 7.81108 5.94895 8.74625C5.55954 9.68142 5.45635 10.7111 5.65243 11.705C5.84851 12.6988 6.33505 13.6121 7.05046 14.3293C7.76587 15.0465 8.67798 15.5353 9.67133 15.7339C10.6647 15.9325 11.6946 15.8318 12.6308 15.4448C13.5669 15.0577 14.3672 14.4016 14.9302 13.5594C15.4933 12.7173 15.7938 11.7271 15.7938 10.7141C15.7939 9.35861 15.2564 8.05841 14.2991 7.09873C13.3418 6.13906 12.043 5.59827 10.6875 5.59499V5.59499ZM10.6875 14.8983C9.85948 14.9003 9.0495 14.6566 8.36007 14.1981C7.67065 13.7395 7.13278 13.0868 6.81453 12.3224C6.49628 11.558 6.41198 10.7163 6.57228 9.90401C6.73259 9.09169 7.13029 8.34519 7.71506 7.759C8.29983 7.17281 9.04538 6.77329 9.85732 6.61102C10.6693 6.44875 11.5111 6.53101 12.2762 6.84741C13.0414 7.1638 13.6955 7.7001 14.1557 8.38841C14.6159 9.07672 14.8616 9.88611 14.8616 10.7141C14.8617 11.8221 14.4223 12.8849 13.6397 13.6693C12.8572 14.4538 11.7955 14.8958 10.6875 14.8983Z" fill="#6A6A6A"/>
</svg>
