<svg width="26" height="26" viewBox="0 0 26 26" fill="none" xmlns="http://www.w3.org/2000/svg">
<path fill-rule="evenodd" clip-rule="evenodd" d="M25.2602 20.1028L19.9995 16.5845C19.6838 16.3774 19.302 16.2962 18.9294 16.3569C18.5568 16.4176 18.2205 16.6159 17.9869 16.9124L16.4545 18.8886C16.3541 19.0198 16.2099 19.1108 16.0481 19.1448C15.8864 19.1789 15.7178 19.1538 15.573 19.0741L15.2805 18.9116C14.3129 18.3828 13.1084 17.7243 10.6821 15.2899C8.25582 12.8555 7.60091 11.6497 7.07113 10.6795L6.91122 10.387C6.83056 10.2419 6.80457 10.0726 6.83796 9.90995C6.87135 9.74729 6.96191 9.60198 7.09323 9.50034L9.0635 7.96398C9.35957 7.72877 9.55722 7.39157 9.61781 7.01834C9.6784 6.64511 9.59757 6.2627 9.39112 5.94592L5.88091 0.670192C5.66903 0.348517 5.34077 0.121428 4.96504 0.0365867C4.58932 -0.0482549 4.19533 0.0157492 3.86578 0.215165L1.66572 1.5406C0.979863 1.94313 0.477492 2.59668 0.264887 3.36299C-0.524913 6.24949 0.0718167 11.233 7.39875 18.5817C12.3066 23.5042 16.7314 26 20.5465 26H20.579C21.253 26 21.9241 25.9106 22.5746 25.7341C23.3399 25.5202 23.9917 25.0166 24.3918 24.33L25.7143 22.1248C25.9136 21.7942 25.9777 21.3994 25.8931 21.0227C25.8085 20.646 25.5818 20.3165 25.2602 20.1028V20.1028ZM25.022 21.7123L23.7021 23.9189C23.4075 24.4265 22.9269 24.7995 22.362 24.959C21.7648 25.1209 21.1484 25.2015 20.5296 25.1985C17.7396 25.1985 13.6193 23.6823 7.96493 18.0113C0.909395 10.9363 0.302914 6.25534 1.03681 3.57425C1.19612 3.00777 1.56897 2.52518 2.07688 2.22801L4.2766 0.904861C4.42983 0.811995 4.61308 0.782119 4.78787 0.821514C4.96266 0.860908 5.11539 0.966504 5.21397 1.11612L8.71964 6.39152C8.81574 6.5388 8.85343 6.71662 8.82535 6.89022C8.79728 7.06382 8.70546 7.2207 8.56784 7.33018L6.59822 8.86656C6.31558 9.08554 6.12061 9.39841 6.04854 9.74862C5.97647 10.0988 6.03206 10.4633 6.20527 10.7761L6.36193 11.0611C6.91447 12.0774 7.60123 13.3418 10.1107 15.8581C12.6202 18.3744 13.8784 19.0621 14.8911 19.616L15.1781 19.7746C15.4901 19.9482 15.854 20.0039 16.2036 19.9316C16.5532 19.8592 16.8652 19.6637 17.0827 19.3806L18.6149 17.4055C18.7236 17.2678 18.8799 17.1758 19.053 17.1477C19.2262 17.1195 19.4036 17.1572 19.5503 17.2534L24.8114 20.7717C24.9612 20.8709 25.0668 21.0243 25.106 21.1996C25.1453 21.375 25.1152 21.5587 25.022 21.7123ZM14.6961 4.28117C16.6588 4.28924 18.5385 5.07392 19.9244 6.46372C21.3103 7.85352 22.0897 9.73542 22.0923 11.6981C22.0907 11.7517 22.1 11.805 22.1194 11.855C22.1389 11.9049 22.1681 11.9504 22.2055 11.9889C22.2428 12.0273 22.2875 12.0578 22.3369 12.0787C22.3862 12.0995 22.4393 12.1103 22.4928 12.1103C22.5464 12.1103 22.5995 12.0995 22.6489 12.0787C22.6982 12.0578 22.7429 12.0273 22.7802 11.9889C22.8176 11.9504 22.8468 11.9049 22.8663 11.855C22.8857 11.805 22.895 11.7517 22.8935 11.6981C22.8905 9.52295 22.0266 7.43738 20.4905 5.89722C18.9545 4.35706 16.8713 3.48754 14.6961 3.4787C14.5931 3.48378 14.496 3.52826 14.4249 3.60295C14.3538 3.67764 14.3142 3.77682 14.3142 3.87994C14.3142 3.98305 14.3538 4.08222 14.4249 4.15691C14.496 4.2316 14.5931 4.27609 14.6961 4.28117V4.28117ZM14.6961 6.8875C15.969 6.89283 17.1881 7.40175 18.087 8.30308C18.9859 9.20441 19.4915 10.4249 19.4934 11.6978C19.4934 11.8041 19.5356 11.906 19.6108 11.9812C19.6859 12.0563 19.7879 12.0986 19.8942 12.0986C20.0004 12.0986 20.1024 12.0563 20.1775 11.9812C20.2527 11.906 20.2949 11.8041 20.2949 11.6978C20.2927 10.2122 19.7026 8.78776 18.6535 7.73578C17.6045 6.68381 16.1818 6.08976 14.6961 6.0834C14.5895 6.0834 14.4872 6.12576 14.4118 6.20116C14.3364 6.27656 14.2941 6.37882 14.2941 6.48545C14.2941 6.59208 14.3364 6.69435 14.4118 6.76975C14.4872 6.84515 14.5895 6.8875 14.6961 6.8875V6.8875ZM14.6961 9.49352C15.2794 9.49601 15.8381 9.72929 16.25 10.1424C16.6618 10.5555 16.8935 11.1148 16.8942 11.6981C16.8927 11.7517 16.9019 11.8051 16.9214 11.8551C16.9409 11.9051 16.9701 11.9506 17.0075 11.9891C17.0449 12.0275 17.0896 12.0581 17.139 12.079C17.1884 12.0999 17.2415 12.1106 17.2951 12.1106C17.3488 12.1106 17.4018 12.0999 17.4512 12.079C17.5006 12.0581 17.5454 12.0275 17.5827 11.9891C17.6201 11.9506 17.6494 11.9051 17.6689 11.8551C17.6883 11.8051 17.6976 11.7517 17.696 11.6981C17.6948 10.9021 17.3785 10.139 16.8165 9.5754C16.2544 9.01179 15.4921 8.69351 14.6961 8.69007C14.5896 8.69007 14.4874 8.73239 14.412 8.80773C14.3367 8.88307 14.2944 8.98525 14.2944 9.0918C14.2944 9.19834 14.3367 9.30052 14.412 9.37586C14.4874 9.4512 14.5896 9.49352 14.6961 9.49352V9.49352Z" fill="#6A6A6A"/>
</svg>
