<svg width="38" height="38" viewBox="0 0 38 38" fill="none" xmlns="http://www.w3.org/2000/svg">
<path d="M12.3965 32.3669V32.1669H12.1965H0.2V1.37578H37.8V32.1669H25.8034H25.6034V32.3669V34.5971V34.7971H25.8034H27.8326V36.6237H10.1673V34.7971H12.1965H12.3965V34.5971V32.3669ZM14.2232 34.5971V34.7971H14.4232H23.5767H23.5768H23.7768V34.5971V32.3669V32.1669H23.5768H14.4232H14.2232V32.3669V34.5971ZM2.02664 30.1402V30.3402H2.22664H35.5733H35.7733H35.7734L35.7733 30.1402H35.9733V25.6816V25.4816H35.7733H2.22664H2.02664V25.6816V30.1402ZM2.02664 23.4549V23.6549H2.22664H35.5733H35.7733H35.7734L35.7733 23.4549H35.9733V3.40249V3.20249H35.7733H2.22664H2.02664V3.40249V23.4549Z" fill="white" stroke="white" stroke-width="0.4"/>
<path d="M10.9704 13.5705L14.8535 17.4535L13.5619 18.7451L8.24573 13.4291L13.5619 8.11292L14.8535 9.40455L10.9704 13.2876L10.829 13.4291L10.9704 13.5705Z" fill="white" stroke="#FFF9F9" stroke-width="0.4"/>
<path d="M27.0295 13.2876L23.1464 9.40455L24.438 8.11292L29.7541 13.4291L24.438 18.7451L23.1464 17.4535L27.0295 13.5705L27.1709 13.4291L27.0295 13.2876Z" fill="white" stroke="#FFF9F9" stroke-width="0.4"/>
<path d="M18.6424 19.9082L16.8507 19.5518L19.3575 6.94968L21.1492 7.30607L18.6424 19.9082Z" fill="white" stroke="#FFF9F9" stroke-width="0.4"/>
</svg>
