<svg width="40" height="40" viewBox="0 0 40 40" fill="none" xmlns="http://www.w3.org/2000/svg">
<path d="M28.3416 36.4584C25.4516 37.6684 21.6016 38.3334 17.4999 38.3334C8.65992 38.3334 2.49992 35.2584 2.49992 32.5V27.485C5.05492 29.8784 10.3316 31.525 16.7333 31.65H16.7499C17.2016 31.65 17.5733 31.2866 17.5833 30.8334C17.5916 30.3717 17.2266 29.9934 16.7666 29.9834C8.23328 29.815 2.49992 26.84 2.49992 24.1666V19.1366C5.17156 21.64 10.8099 23.3333 17.4999 23.3333C24.5149 23.3333 30.3899 21.4766 32.8833 18.7716C33.0149 18.8583 33.1633 18.9216 33.3333 18.9216C33.7933 18.9216 34.1666 18.5483 34.1666 18.0883V7.5C34.1666 3.295 26.845 0 17.5 0C8.155 0 0.833282 3.295 0.833282 7.5V32.5C0.833282 36.705 8.15492 40 17.4999 40C21.8166 40 25.8949 39.2884 28.9849 37.995C29.4083 37.8184 29.6083 37.33 29.4316 36.905C29.2566 36.4816 28.7683 36.2834 28.3416 36.4584ZM17.4999 1.66664C26.3399 1.66664 32.4999 4.74164 32.4999 7.5C32.4999 10.2584 26.3399 13.3334 17.4999 13.3334C8.65992 13.3334 2.49992 10.2584 2.49992 7.5C2.49992 4.74164 8.65992 1.66664 17.4999 1.66664ZM2.49992 10.8034C5.17156 13.3066 10.8099 15 17.4999 15C24.1899 15 29.8283 13.3066 32.4999 10.8034V15.8334C32.4999 18.5917 26.3399 21.6667 17.4999 21.6667C8.65992 21.6667 2.49992 18.5917 2.49992 15.8334V10.8034Z" fill="white"/>
<path d="M35.8332 33.3334C34.6965 33.3334 33.6915 33.9067 33.0898 34.78L25.6448 31.0584C25.7582 30.725 25.8332 30.3734 25.8332 30.0017C25.8332 29.6301 25.7582 29.2801 25.6448 28.9451L33.0898 25.2217C33.6914 26.0934 34.6948 26.6667 35.8332 26.6667C37.6715 26.6667 39.1665 25.1717 39.1665 23.3334C39.1665 21.495 37.6715 20 35.8332 20C33.9948 20 32.4998 21.495 32.4998 23.3334C32.4998 23.4367 32.5214 23.535 32.5298 23.6367L24.7264 27.5384C24.1348 27.0017 23.3581 26.6667 22.4998 26.6667C20.6614 26.6667 19.1664 28.1617 19.1664 30.0001C19.1664 31.8384 20.6614 33.3334 22.4998 33.3334C23.3598 33.3334 24.1364 32.9984 24.7282 32.4618L32.5315 36.3634C32.5199 36.4651 32.4999 36.5634 32.4999 36.6668C32.4998 38.505 33.9948 40 35.8332 40C37.6715 40 39.1665 38.505 39.1665 36.6666C39.1664 34.8284 37.6698 33.3334 35.8332 33.3334ZM35.8332 21.6666C36.7532 21.6666 37.4998 22.4133 37.4998 23.3333C37.4998 24.2533 36.7532 25 35.8332 25C34.9132 25 34.1665 24.2534 34.1665 23.3334C34.1665 22.4134 34.9132 21.6666 35.8332 21.6666ZM22.4998 31.6666C21.5798 31.6666 20.8332 30.92 20.8332 30C20.8332 29.08 21.5798 28.3334 22.4998 28.3334C23.4198 28.3334 24.1664 29.08 24.1664 30C24.1664 30.92 23.4198 31.6666 22.4998 31.6666ZM35.8332 38.3334C34.9132 38.3334 34.1665 37.5867 34.1665 36.6667C34.1665 35.7467 34.9132 35 35.8332 35C36.7532 35 37.4998 35.7466 37.4998 36.6666C37.4998 37.5866 36.7532 38.3334 35.8332 38.3334Z" fill="white"/>
</svg>
