<svg width="55" height="51" viewBox="0 0 55 51" fill="none" xmlns="http://www.w3.org/2000/svg">
<path d="M54.7492 13.6707C54.5035 13.1675 54.089 12.7576 53.5844 12.5175L31.0688 1.72977C28.4671 0.483251 26.5327 0.483358 23.9313 1.72977L1.41808 12.5162C0.91094 12.7576 0.496292 13.1675 0.250833 13.6705C0.0837916 14.0122 -0.00053456 14.3773 2.54964e-06 14.7558C-0.00053456 15.134 0.0838991 15.499 0.250725 15.8408C0.496292 16.3437 0.910725 16.7536 1.4155 16.994L6.01563 19.198V32.0594C6.01563 34.7863 8.37386 37.2676 12.6557 39.0463C16.6383 40.7005 21.91 41.6116 27.5 41.6116C31.8038 41.6116 36.0154 41.0524 39.5333 40.0264V44.9221L37.811 47.9052C37.5143 48.419 37.6904 49.0759 38.2042 49.3726C38.3734 49.4702 38.558 49.5167 38.7403 49.5167C39.1116 49.5167 39.4726 49.324 39.6716 48.9794L41.2277 46.2841H41.6817V49.1307C41.6817 49.7239 42.1627 50.205 42.756 50.205C43.3492 50.205 43.8302 49.7239 43.8302 49.1307V46.2841H44.2842L45.8404 48.9794C46.0393 49.324 46.4003 49.5167 46.7716 49.5167C46.9538 49.5167 47.1385 49.4702 47.3077 49.3726C47.8215 49.0759 47.9976 48.419 47.7009 47.9052L45.9786 44.9221V38.7645C45.9786 38.2366 45.8501 37.7383 45.6241 37.2981C47.8277 35.774 48.9844 33.9794 48.9844 32.0594V19.1979L53.5821 16.995C54.0893 16.7535 54.5037 16.3436 54.7492 15.8408C54.9164 15.4983 55.0009 15.1323 54.9999 14.7581C55.0008 14.3789 54.9163 14.0129 54.7492 13.6707ZM13.4799 37.0622C10.1016 35.659 8.16407 33.8355 8.16407 32.0594V30.3762C9.49986 31.8184 11.4269 33.124 13.8613 34.1969C14.0022 34.2589 14.1492 34.2884 14.2939 34.2884C14.7066 34.2884 15.1003 34.0489 15.2774 33.647C15.5167 33.1041 15.2706 32.47 14.7277 32.2307C10.5773 30.4019 8.18501 27.9628 8.16417 25.5391C8.16417 25.5384 8.16407 25.5379 8.16407 25.5373V20.2273L23.9312 27.7815C25.2321 28.4049 26.3658 28.7164 27.5 28.7164C28.6338 28.7163 29.7681 28.4047 31.0688 27.7815L41.6817 22.6967V35.7266C40.7561 36.0549 40.0243 36.7947 39.7062 37.7251C36.2409 38.8469 31.9323 39.4632 27.5 39.4632C22.1864 39.4632 17.2073 38.6105 13.4799 37.0622ZM43.8302 44.1356H41.6817V38.7645C41.6817 38.1722 42.1636 37.6903 42.756 37.6903C43.3483 37.6903 43.8302 38.1722 43.8302 38.7645V44.1356ZM46.8359 32.0594C46.8359 33.3201 45.8353 34.633 44.0045 35.7937C43.9473 35.7695 43.889 35.7475 43.8302 35.7266V21.6674L46.8359 20.2272V32.0594ZM52.8185 14.8981C52.7759 14.9853 52.7079 15.0317 52.6561 15.0564L42.756 19.7997L31.9649 14.6296C32.0651 14.3283 32.1191 14.0109 32.1191 13.6815C32.1191 11.6486 30.0902 10.056 27.5 10.056C24.9098 10.056 22.8809 11.6486 22.8809 13.6815C22.8809 15.7145 24.9098 17.307 27.5 17.307C28.7173 17.307 29.8105 16.9552 30.6276 16.3713L40.2698 20.9909L30.1403 25.8441C28.1169 26.8135 26.8831 26.8135 24.8596 25.8441L2.34148 15.0554C2.29196 15.0317 2.22385 14.9853 2.18131 14.898C2.1594 14.8531 2.14833 14.8061 2.14844 14.7581C2.14844 14.7565 2.14844 14.7549 2.14844 14.7533C2.14833 14.7054 2.1594 14.6583 2.18142 14.6133C2.22396 14.5261 2.29185 14.4798 2.34384 14.455L24.8596 3.66734C25.8713 3.18255 26.6856 2.9401 27.4999 2.9401C28.3143 2.9401 29.1286 3.18255 30.1403 3.66734L52.6586 14.4564C52.7081 14.4799 52.7759 14.5262 52.8187 14.6136C52.8406 14.6584 52.8516 14.7054 52.8515 14.7582C52.8516 14.8061 52.8405 14.8531 52.8185 14.8981ZM27.5 15.1585C26.044 15.1585 25.0293 14.3801 25.0293 13.6814C25.0293 12.9828 26.044 12.2044 27.5 12.2044C28.956 12.2044 29.9707 12.9828 29.9707 13.6814C29.9707 14.3801 28.956 15.1585 27.5 15.1585Z" fill="black"/>
<path d="M18.8701 33.7012C18.2768 33.7012 17.7958 34.1822 17.7958 34.7754C17.7958 35.3686 18.2768 35.8496 18.8701 35.8496H18.8708C19.4641 35.8496 19.9446 35.3686 19.9446 34.7754C19.9446 34.1822 19.4633 33.7012 18.8701 33.7012Z" fill="black"/>
</svg>
