<svg width="45" height="45" viewBox="0 0 45 45" fill="none" xmlns="http://www.w3.org/2000/svg">
<path d="M13.3458 10.5443V6.32991C13.3458 4.29182 14.998 2.63965 17.0361 2.63965H27.9638C30.0019 2.63965 31.6541 4.29182 31.6541 6.32991V10.5443" fill="white"/>
<path d="M13.3458 10.5443V6.32991C13.3458 4.29182 14.998 2.63965 17.0361 2.63965H27.9638C30.0019 2.63965 31.6541 4.29182 31.6541 6.32991V10.5443C31.6541 10.5442 13.3458 10.5442 13.3458 10.5443Z" fill="#ADE5FF"/>
<path d="M28.1391 6.15527H16.8618V10.5443H28.1391V6.15527Z" fill="white"/>
<path d="M40.6055 42.3604H4.39453C2.45294 42.3604 0.878906 40.7863 0.878906 38.8447V14.0596C0.878906 12.118 2.45294 10.5439 4.39453 10.5439H40.6055C42.5471 10.5439 44.1211 12.118 44.1211 14.0596V38.8447C44.1211 40.7863 42.5471 42.3604 40.6055 42.3604Z" fill="#B5B5FF"/>
<path d="M40.6055 10.5439H4.39453C2.45294 10.5439 0.878906 12.118 0.878906 14.0596V23.1235H44.1211V14.0596C44.1211 12.1178 42.5471 10.5439 40.6055 10.5439Z" fill="#2EDEDE"/>
<path d="M13.9178 21.3545H8.74084C8.59521 21.3545 8.47717 21.4725 8.47717 21.6182V25.4428C8.47717 26.9476 9.69701 28.1674 11.2018 28.1674H11.4568C12.9616 28.1674 14.1814 26.9476 14.1814 25.4428V21.6182C14.1814 21.4724 14.0634 21.3545 13.9178 21.3545Z" fill="white"/>
<path d="M36.2592 21.3545H31.0823C30.9366 21.3545 30.8186 21.4725 30.8186 21.6182V25.4428C30.8186 26.9476 32.0384 28.1674 33.5432 28.1674H33.7983C35.303 28.1674 36.5229 26.9476 36.5229 25.4428V21.6182C36.5229 21.4724 36.4048 21.3545 36.2592 21.3545Z" fill="white"/>
<path d="M44.1211 28.3008C43.8899 28.3008 43.6632 28.3947 43.4997 28.5583C43.3362 28.7219 43.2422 28.9485 43.2422 29.1797C43.2422 29.4108 43.3361 29.6376 43.4997 29.801C43.6632 29.9645 43.8899 30.0586 44.1211 30.0586C44.3522 30.0586 44.579 29.9646 44.7424 29.801C44.906 29.6376 45 29.4108 45 29.1797C45 28.9485 44.906 28.7218 44.7424 28.5583C44.579 28.3947 44.3522 28.3008 44.1211 28.3008Z" fill="black"/>
<path d="M40.6055 9.66536H32.5331V6.32991C32.5331 3.81044 30.4834 1.76074 27.9639 1.76074H17.0361C14.5166 1.76074 12.4669 3.81044 12.4669 6.32991V9.66536H4.39453C1.97139 9.66536 0 11.6367 0 14.0599V38.845C0 41.2682 1.97139 43.2396 4.39453 43.2396H40.6055C43.0286 43.2396 45 41.2682 45 38.845V32.7833C45 32.298 44.6064 31.9044 44.1211 31.9044C43.6358 31.9044 43.2422 32.298 43.2422 32.7833V38.845C43.2422 40.2989 42.0594 41.4818 40.6055 41.4818H4.39453C2.99979 41.4818 1.8552 40.393 1.76432 39.0208H13.3886C13.874 39.0208 14.2675 38.6273 14.2675 38.1419C14.2675 37.6566 13.874 37.263 13.3886 37.263H1.75781V22.9963C2.54944 23.6255 3.5499 24.0027 4.63737 24.0027H7.59823V25.4431C7.59823 27.4301 9.2148 29.0466 11.2017 29.0466H11.4568C13.4437 29.0466 15.0603 27.4301 15.0603 25.4431V24.0027H29.9396V25.4431C29.9396 27.4301 31.5562 29.0466 33.5431 29.0466H33.7982C35.7851 29.0466 37.4017 27.4301 37.4017 25.4431V24.0027H40.3625C41.45 24.0027 42.4504 23.6255 43.2421 22.9963V25.7593C43.2421 26.2446 43.6357 26.6382 44.121 26.6382C44.6063 26.6382 44.9999 26.2446 44.9999 25.7593V14.0599C45 11.6366 43.0286 9.66536 40.6055 9.66536ZM14.2247 6.32991C14.2247 4.7797 15.486 3.51855 17.0361 3.51855H27.9639C29.5141 3.51855 30.7753 4.77979 30.7753 6.32991V9.66536H29.0174V6.15519C29.0174 5.66985 28.6239 5.27628 28.1385 5.27628H16.8615C16.3761 5.27628 15.9826 5.66985 15.9826 6.15519V9.66536H14.2247V6.32991ZM17.7404 9.66536V7.03409H27.2597V9.66536C27.2597 9.66527 17.7404 9.66527 17.7404 9.66536ZM13.3026 25.443C13.3026 26.4607 12.4746 27.2887 11.4569 27.2887H11.2018C10.1842 27.2887 9.35613 26.4607 9.35613 25.443V22.2336H13.3026V25.443ZM35.644 25.443C35.644 26.4607 34.8159 27.2887 33.7983 27.2887H33.5432C32.5255 27.2887 31.6975 26.4607 31.6975 25.443V22.2336H35.644V25.443ZM40.3626 22.2448H37.4018V21.6184C37.4018 20.9884 36.8892 20.4758 36.2592 20.4758H31.0823C30.4523 20.4758 29.9397 20.9884 29.9397 21.6184V22.2448H15.0604V21.6184C15.0604 20.9884 14.5478 20.4758 13.9178 20.4758H8.74081C8.11081 20.4758 7.59823 20.9884 7.59823 21.6184V22.2448H4.63737C3.04954 22.2448 1.75781 20.953 1.75781 19.3652V14.0598C1.75781 12.6059 2.94064 11.4231 4.39453 11.4231H40.6055C42.0594 11.4231 43.2422 12.6059 43.2422 14.0598V19.3652C43.2422 20.953 41.9505 22.2448 40.3626 22.2448Z" fill="black"/>
<path d="M16.8458 37.2627C16.3604 37.2627 15.9669 37.6563 15.9669 38.1416C15.9669 38.6269 16.3604 39.0205 16.8458 39.0205H16.8598C17.3452 39.0205 17.7387 38.6269 17.7387 38.1416C17.7387 37.6563 17.3452 37.2627 16.8598 37.2627H16.8458Z" fill="black"/>
</svg>
