<svg width="44" height="55" viewBox="0 0 44 55" fill="none" xmlns="http://www.w3.org/2000/svg">
<path fill-rule="evenodd" clip-rule="evenodd" d="M14.9569 39.3672H28.1127V48.4947C27.451 51.6007 24.7575 53.9258 21.5348 53.9258C18.3118 53.9258 15.6182 51.6007 14.9569 48.4947V39.3672Z" fill="#67E5DD"/>
<path fill-rule="evenodd" clip-rule="evenodd" d="M21.5348 8.01172C28.9944 8.01172 35.0419 14.0588 35.0419 21.5188C35.0419 30.8729 28.1769 33.9151 28.1769 37.9132C28.1769 38.4268 28.1547 38.9106 28.1123 39.3667H14.9569C14.915 38.9106 14.8927 38.4268 14.8927 37.9132C14.8927 33.9151 8.02779 30.8729 8.02779 21.5188C8.02779 14.0588 14.0749 8.01172 21.5348 8.01172Z" fill="#FEC96B"/>
<path fill-rule="evenodd" clip-rule="evenodd" d="M21.5348 6.9375C15.2305 6.9375 9.66639 10.9566 7.68832 16.9386C7.50201 17.5018 7.80791 18.1094 8.37103 18.2957C8.93458 18.482 9.54219 18.1765 9.72808 17.613C11.4145 12.5125 16.1591 9.08594 21.5348 9.08594C28.3901 9.08594 33.9677 14.6631 33.9677 21.5188C33.9677 26.8173 31.5943 29.9828 29.6876 32.5266C28.3003 34.3767 27.1023 35.975 27.1023 37.9132C27.1023 38.0412 27.1006 38.1671 27.0977 38.2925H22.609V35.8248C22.609 35.2314 22.1282 34.7505 21.5348 34.7505C20.9415 34.7505 20.4606 35.2314 20.4606 35.8248V38.2925H15.9716C15.9686 38.1671 15.9669 38.0407 15.9669 37.9132C15.9669 35.9746 14.7689 34.3767 13.3821 32.5261C11.9776 30.6526 10.3856 28.5289 9.59632 25.5114C9.44609 24.9374 8.85905 24.5937 8.28543 24.7439C7.7114 24.8942 7.36773 25.4812 7.51795 26.0552C8.41384 29.4806 10.2153 31.8837 11.6629 33.8148C12.8672 35.4215 13.8185 36.6908 13.8185 37.9132C13.8185 38.4276 13.8403 38.9299 13.8827 39.4083V48.4947C13.8827 48.5236 13.8848 48.5517 13.8873 48.5798C13.8877 48.587 13.8873 48.5937 13.8882 48.6008C13.8919 48.6403 13.8982 48.6793 13.9062 48.7175C13.9066 48.7179 13.9066 48.7179 13.9066 48.7183C14.2792 50.4681 15.2343 52.0593 16.5964 53.1986C17.9845 54.3601 19.7385 54.9996 21.5348 54.9996C23.3312 54.9996 25.0848 54.3601 26.4733 53.1986C27.835 52.0593 28.7904 50.4681 29.163 48.7183C29.163 48.7179 29.1635 48.7175 29.1635 48.7171C29.1714 48.6789 29.1773 48.6403 29.1815 48.6004C29.1819 48.5937 29.1819 48.5866 29.1823 48.5798C29.1844 48.5513 29.1865 48.5232 29.1865 48.4942V39.4083C29.2289 38.9295 29.2512 38.4276 29.2512 37.9132C29.2512 36.6904 30.2024 35.4215 31.4067 33.8148C33.394 31.1637 36.1161 27.5331 36.1161 21.5188C36.1161 13.4785 29.5751 6.9375 21.5348 6.9375ZM16.0311 45.0047H27.0385V47.42H16.0311V45.0047ZM27.0385 42.8563H16.0311V40.441H27.0385V42.8563ZM21.5348 52.8511C19.3507 52.8511 17.381 51.5302 16.4478 49.5685H26.6218C25.6882 51.5302 23.7185 52.8511 21.5348 52.8511Z" fill="black"/>
<path fill-rule="evenodd" clip-rule="evenodd" d="M21.5348 5.01064C22.1282 5.01064 22.609 4.52976 22.609 3.93642V1.07422C22.609 0.480881 22.1282 0 21.5348 0C20.9415 0 20.4606 0.480881 20.4606 1.07422V3.93642C20.4606 4.52976 20.9415 5.01064 21.5348 5.01064Z" fill="black"/>
<path fill-rule="evenodd" clip-rule="evenodd" d="M3.95205 20.4453H1.08984C0.496506 20.4453 0.015625 20.9262 0.015625 21.5195C0.015625 22.1129 0.496506 22.5938 1.08984 22.5938H3.95205C4.54539 22.5938 5.02627 22.1129 5.02627 21.5195C5.02627 20.9262 4.54539 20.4453 3.95205 20.4453Z" fill="black"/>
<path fill-rule="evenodd" clip-rule="evenodd" d="M26.4532 23.6895C26.4532 23.0961 25.9723 22.6152 25.3789 22.6152H17.6907C17.0974 22.6152 16.6165 23.0961 16.6165 23.6895C16.6165 24.2828 17.0974 24.7637 17.6907 24.7637H20.4606V27.2314C20.4606 27.8248 20.9415 28.3057 21.5348 28.3057C22.1282 28.3057 22.609 27.8248 22.609 27.2314V24.7637H25.3789C25.9723 24.7637 26.4532 24.2828 26.4532 23.6895Z" fill="black"/>
<path fill-rule="evenodd" clip-rule="evenodd" d="M8.3425 9.84582C8.55231 10.0556 8.82716 10.1605 9.10201 10.1605C9.37685 10.1605 9.6517 10.0556 9.86151 9.84582C10.2811 9.4262 10.2811 8.746 9.86151 8.32681L7.83728 6.30299C7.41808 5.88338 6.73788 5.88338 6.31827 6.30299C5.89865 6.72219 5.89865 7.40239 6.31827 7.82201L8.3425 9.84582Z" fill="black"/>
<path fill-rule="evenodd" clip-rule="evenodd" d="M7.60145 33.9339L5.57722 35.9577C5.15803 36.3773 5.15803 37.0575 5.57722 37.4767C5.78703 37.6865 6.06188 37.7914 6.33715 37.7914C6.612 37.7914 6.88685 37.6865 7.09666 37.4767L9.12047 35.4529C9.54008 35.0332 9.54008 34.3535 9.12047 33.9339C8.70085 33.5142 8.02065 33.5142 7.60145 33.9339Z" fill="black"/>
<path fill-rule="evenodd" clip-rule="evenodd" d="M33.9677 10.1608C34.2425 10.1608 34.5173 10.0559 34.7272 9.84608L36.751 7.82227C37.1706 7.40265 37.1706 6.72245 36.751 6.30284C36.3318 5.88322 35.6516 5.88364 35.232 6.30284L33.2081 8.32665C32.7885 8.74626 32.7885 9.42646 33.2077 9.84608C33.4175 10.0559 33.6928 10.1608 33.9677 10.1608Z" fill="black"/>
<path fill-rule="evenodd" clip-rule="evenodd" d="M35.4682 33.9339C35.049 33.5142 34.3688 33.5142 33.9492 33.9339C33.5296 34.3531 33.5296 35.0332 33.9492 35.4529L35.973 37.4767C36.1828 37.6865 36.4577 37.7914 36.7325 37.7914C37.0074 37.7914 37.2822 37.6865 37.492 37.4767C37.9116 37.0575 37.9116 36.3773 37.492 35.9577L35.4682 33.9339Z" fill="black"/>
<path fill-rule="evenodd" clip-rule="evenodd" d="M41.9794 20.4453H39.1172C38.5238 20.4453 38.043 20.9262 38.043 21.5195C38.043 22.1129 38.5238 22.5938 39.1172 22.5938H41.9794C42.5727 22.5938 43.0536 22.1129 43.0536 21.5195C43.0536 20.9262 42.5727 20.4453 41.9794 20.4453Z" fill="black"/>
<path fill-rule="evenodd" clip-rule="evenodd" d="M21.5348 30.4541C20.9432 30.4541 20.4606 30.9367 20.4606 31.5283C20.4606 32.12 20.9432 32.6025 21.5348 32.6025C22.1265 32.6025 22.609 32.12 22.609 31.5283C22.609 30.9367 22.1265 30.4541 21.5348 30.4541Z" fill="black"/>
<path fill-rule="evenodd" clip-rule="evenodd" d="M8.02779 22.5938C8.61945 22.5938 9.10201 22.1112 9.10201 21.5195C9.10201 20.9279 8.61945 20.4453 8.02779 20.4453C7.43571 20.4453 6.95357 20.9279 6.95357 21.5195C6.95357 22.1112 7.43571 22.5938 8.02779 22.5938Z" fill="black"/>
</svg>
