<svg width="40" height="40" viewBox="0 0 40 40" fill="none" xmlns="http://www.w3.org/2000/svg">
<g clip-path="url(#clip0)">
<path d="M30 39.9998C29.89 39.9998 29.78 39.9781 29.6767 39.9348C29.28 39.7664 20 35.7564 20 27.5598V20.5948C20 20.2364 20.2283 19.9198 20.5667 19.8048L29.7333 16.7098C29.9067 16.6514 30.095 16.6514 30.2667 16.7098L39.4333 19.8048C39.7717 19.9181 40 20.2364 40 20.5948V27.5598C40 35.7564 30.72 39.7664 30.3233 39.9348C30.22 39.9781 30.11 39.9998 30 39.9998ZM21.6667 21.1948V27.5598C21.6667 33.8664 28.425 37.4898 30 38.2481C31.5733 37.4881 38.3333 33.8498 38.3333 27.5598V21.1948L30 18.3798L21.6667 21.1948Z" fill="white"/>
<path d="M29.1668 31.6664C29.1518 31.6664 29.1351 31.6664 29.1218 31.6648C28.8834 31.6514 28.6651 31.5398 28.5168 31.3531L25.1834 27.1864C24.8968 26.8264 24.9534 26.3031 25.3134 26.0148C25.6751 25.7314 26.1968 25.7881 26.4851 26.1448L29.2351 29.5831L34.4101 24.4098C34.7351 24.0848 35.2634 24.0848 35.5884 24.4098C35.9134 24.7348 35.9134 25.2631 35.5884 25.5881L29.7551 31.4214C29.6001 31.5781 29.3868 31.6664 29.1668 31.6664Z" fill="white"/>
<path d="M30.8333 13.3337H5.83333C2.61666 13.3337 -7.62939e-06 10.717 -7.62939e-06 7.50033C-7.62939e-06 4.28366 2.61666 1.66699 5.83333 1.66699H30.8333C34.05 1.66699 36.6667 4.28366 36.6667 7.50033C36.6667 10.717 34.05 13.3337 30.8333 13.3337ZM5.83333 3.33366C3.53499 3.33366 1.66666 5.20199 1.66666 7.50033C1.66666 9.79866 3.53499 11.667 5.83333 11.667H30.8333C33.1317 11.667 35 9.79866 35 7.50033C35 5.20199 33.1317 3.33366 30.8333 3.33366H5.83333Z" fill="white"/>
<path d="M7.49999 10C6.12166 10 4.99999 8.87833 4.99999 7.5C4.99999 6.12167 6.12166 5 7.49999 5C8.87833 5 9.99999 6.12167 9.99999 7.5C9.99999 8.87833 8.87833 10 7.49999 10ZM7.49999 6.66667C7.04166 6.66667 6.66666 7.04167 6.66666 7.5C6.66666 7.95833 7.04166 8.33333 7.49999 8.33333C7.95833 8.33333 8.33333 7.95833 8.33333 7.5C8.33333 7.04167 7.95833 6.66667 7.49999 6.66667Z" fill="white"/>
<path d="M15.8334 10C14.4551 10 13.3334 8.87833 13.3334 7.5C13.3334 6.12167 14.4551 5 15.8334 5C17.2117 5 18.3334 6.12167 18.3334 7.5C18.3334 8.87833 17.2117 10 15.8334 10ZM15.8334 6.66667C15.3751 6.66667 15.0001 7.04167 15.0001 7.5C15.0001 7.95833 15.3751 8.33333 15.8334 8.33333C16.2917 8.33333 16.6667 7.95833 16.6667 7.5C16.6667 7.04167 16.2917 6.66667 15.8334 6.66667Z" fill="white"/>
<path d="M15.8333 23.3337H5.83333C2.61666 23.3337 -7.62939e-06 20.717 -7.62939e-06 17.5003C-7.62939e-06 15.9437 0.606659 14.4803 1.70999 13.377C2.81333 12.2737 4.27666 11.667 5.83333 11.667H30.8333C32.1367 11.667 33.365 12.0853 34.38 12.877C34.7433 13.1603 34.8083 13.6837 34.525 14.047C34.2417 14.4087 33.7183 14.4737 33.355 14.192C32.635 13.6303 31.7633 13.3337 30.8333 13.3337H5.83333C4.72333 13.3337 3.67666 13.7687 2.88833 14.5553C2.09999 15.342 1.66666 16.3903 1.66666 17.5003C1.66666 19.7987 3.53499 21.667 5.83333 21.667H15.8333C16.2933 21.667 16.6667 22.0403 16.6667 22.5003C16.6667 22.9603 16.2933 23.3337 15.8333 23.3337Z" fill="white"/>
<path d="M7.49999 20C6.12166 20 4.99999 18.8783 4.99999 17.5C4.99999 16.1217 6.12166 15 7.49999 15C8.87833 15 9.99999 16.1217 9.99999 17.5C9.99999 18.8783 8.87833 20 7.49999 20ZM7.49999 16.6667C7.04166 16.6667 6.66666 17.0417 6.66666 17.5C6.66666 17.9583 7.04166 18.3333 7.49999 18.3333C7.95833 18.3333 8.33333 17.9583 8.33333 17.5C8.33333 17.0417 7.95833 16.6667 7.49999 16.6667Z" fill="white"/>
<path d="M15.8334 20C14.4551 20 13.3334 18.8783 13.3334 17.5C13.3334 16.1217 14.4551 15 15.8334 15C17.2117 15 18.3334 16.1217 18.3334 17.5C18.3334 18.8783 17.2117 20 15.8334 20ZM15.8334 16.6667C15.3751 16.6667 15.0001 17.0417 15.0001 17.5C15.0001 17.9583 15.3751 18.3333 15.8334 18.3333C16.2917 18.3333 16.6667 17.9583 16.6667 17.5C16.6667 17.0417 16.2917 16.6667 15.8334 16.6667Z" fill="white"/>
<path d="M15.8333 33.3337H5.83333C2.61666 33.3337 -7.62939e-06 30.717 -7.62939e-06 27.5003C-7.62939e-06 25.9437 0.606659 24.4803 1.70999 23.377C2.81333 22.2737 4.27666 21.667 5.83333 21.667H15.8333C16.2933 21.667 16.6667 22.0403 16.6667 22.5003C16.6667 22.9603 16.2933 23.3337 15.8333 23.3337H5.83333C4.72333 23.3337 3.67666 23.7687 2.88833 24.5553C2.09999 25.342 1.66666 26.3903 1.66666 27.5003C1.66666 29.7987 3.53499 31.667 5.83333 31.667H15.8333C16.2933 31.667 16.6667 32.0403 16.6667 32.5003C16.6667 32.9603 16.2933 33.3337 15.8333 33.3337Z" fill="white"/>
<path d="M7.49999 30C6.12166 30 4.99999 28.8783 4.99999 27.5C4.99999 26.1217 6.12166 25 7.49999 25C8.87833 25 9.99999 26.1217 9.99999 27.5C9.99999 28.8783 8.87833 30 7.49999 30ZM7.49999 26.6667C7.04166 26.6667 6.66666 27.0417 6.66666 27.5C6.66666 27.9583 7.04166 28.3333 7.49999 28.3333C7.95833 28.3333 8.33333 27.9583 8.33333 27.5C8.33333 27.0417 7.95833 26.6667 7.49999 26.6667Z" fill="white"/>
<path d="M15.8334 30C14.4551 30 13.3334 28.8783 13.3334 27.5C13.3334 26.1217 14.4551 25 15.8334 25C17.2117 25 18.3334 26.1217 18.3334 27.5C18.3334 28.8783 17.2117 30 15.8334 30ZM15.8334 26.6667C15.3751 26.6667 15.0001 27.0417 15.0001 27.5C15.0001 27.9583 15.3751 28.3333 15.8334 28.3333C16.2917 28.3333 16.6667 27.9583 16.6667 27.5C16.6667 27.0417 16.2917 26.6667 15.8334 26.6667Z" fill="white"/>
</g>
<defs>
<clipPath id="clip0">
<rect width="40" height="40" fill="white"/>
</clipPath>
</defs>
</svg>
