<svg width="18" height="18" viewBox="0 0 18 18" fill="none" xmlns="http://www.w3.org/2000/svg">
<path fill-rule="evenodd" clip-rule="evenodd" d="M0 9C0 4.00909 4.00909 0 9 0C13.9909 0 18 4.00909 18 9C18 13.9909 13.9909 18 9 18C4.00909 18 0 13.9909 0 9ZM7.65 12.9682L14.1955 6.17727C14.3591 6.01364 14.3591 5.76818 14.1955 5.64545L13.6227 5.07273C13.4591 4.90909 13.2136 4.90909 13.05 5.07273H13.0091L7.52727 10.7591C7.44545 10.8409 7.32273 10.8409 7.24091 10.7591L4.99091 8.34545L4.95 8.30455C4.78636 8.14091 4.54091 8.14091 4.37727 8.30455L3.80455 8.87727C3.72273 8.95909 3.68182 9.08182 3.68182 9.16364C3.68182 9.24545 3.72273 9.36818 3.80455 9.45L3.88636 9.53182L7.07727 12.9682C7.11818 13.05 7.24091 13.0909 7.36364 13.0909C7.48636 13.0909 7.56818 13.05 7.65 12.9682Z" fill="#11CB6D"/>
</svg>
