<svg width="58" height="58" viewBox="0 0 58 58" fill="none" xmlns="http://www.w3.org/2000/svg">
<path d="M29.0001 47.6629C39.3071 47.6629 47.6626 39.3074 47.6626 29.0004C47.6626 18.6934 39.3071 10.3379 29.0001 10.3379C18.693 10.3379 10.3376 18.6934 10.3376 29.0004C10.3376 39.3074 18.693 47.6629 29.0001 47.6629Z" fill="#C6D4FF"/>
<path d="M54.8621 22.7887H53.9016C53.2883 20.3187 52.3148 17.9704 50.9985 15.7856L51.6795 15.1048C52.9029 13.8813 52.9029 11.8907 51.6795 10.6671L47.333 6.32064C46.1094 5.09732 44.1189 5.09732 42.8953 6.32064L42.2145 7.00157C40.03 5.68547 37.6814 4.71193 35.2114 4.09852V3.13789C35.2114 1.40775 33.8038 0 32.0735 0H25.9267C24.1964 0 22.7888 1.40775 22.7888 3.13789V4.0984C20.3187 4.71182 17.9703 5.68536 15.7857 7.00146L15.1049 6.32053C13.8814 5.0972 11.8908 5.0972 10.6672 6.32053L6.32064 10.6671C5.0972 11.8907 5.0972 13.8813 6.32064 15.1048L7.00157 15.7856C5.68536 17.9704 4.71182 20.3188 4.09852 22.7887H3.13789C1.40775 22.7887 0 24.1963 0 25.9266V32.0734C0 33.8037 1.40775 35.2113 3.13789 35.2113H4.0984C4.71171 37.6813 5.68525 40.0296 7.00146 42.2144L6.32053 42.8952C5.09709 44.1187 5.09709 46.1093 6.32053 47.3329L10.667 51.6794C11.8906 52.9027 13.8811 52.9027 15.1047 51.6794L15.7855 50.9984C17.97 52.3145 20.3186 53.2881 22.7886 53.9015V54.862C22.7886 56.5921 24.1962 57.9999 25.9265 57.9999H32.0733C33.8036 57.9999 35.2112 56.5921 35.2112 54.862V53.9015C37.6813 53.2881 40.0297 52.3145 42.2143 50.9984L42.8951 51.6794C44.1186 52.9027 46.1092 52.9027 47.3328 51.6794L51.6792 47.3329C52.9027 46.1093 52.9027 44.1187 51.6792 42.8952L50.9983 42.2144C52.3145 40.0296 53.2881 37.6812 53.9014 35.2113H54.8619C56.592 35.2113 57.9998 33.8037 57.9998 32.0734V25.9266C58 24.1963 56.5922 22.7887 54.8621 22.7887ZM55.7344 32.0734C55.7344 32.5544 55.3431 32.9457 54.8621 32.9457H52.9993C52.4637 32.9457 52.0011 33.321 51.8909 33.845C51.2959 36.6704 50.1923 39.3328 48.6106 41.7585C48.3181 42.2072 48.3797 42.7996 48.7585 43.1783L50.0774 44.4972C50.4175 44.8373 50.4175 45.3907 50.0774 45.7307L45.731 50.0772C45.3909 50.4173 44.8375 50.4173 44.4974 50.0772L43.1785 48.7583C42.7997 48.3795 42.2073 48.3182 41.7588 48.6103C39.3333 50.192 36.6708 51.2956 33.8453 51.8906C33.3211 52.0011 32.9459 52.4635 32.9459 52.9991V54.8621C32.9459 55.3431 32.5546 55.7344 32.0737 55.7344H25.9268C25.4458 55.7344 25.0545 55.3431 25.0545 54.8621V52.9993C25.0545 52.4637 24.6792 52.0012 24.1552 51.8909C21.3296 51.2958 18.6672 50.1922 16.2417 48.6106C16.0522 48.4871 15.8372 48.4267 15.6233 48.4267C15.3308 48.4267 15.0407 48.5397 14.8219 48.7585L13.503 50.0774C13.1629 50.4175 12.6096 50.4175 12.2695 50.0774L7.923 45.731C7.58293 45.3909 7.58293 44.8375 7.923 44.4974L9.24194 43.1785C9.62075 42.7997 9.68237 42.2075 9.38988 41.7588C7.80814 39.3331 6.70455 36.6706 6.1096 33.8453C5.99926 33.3211 5.53673 32.9459 5.00114 32.9459H3.13789C2.6569 32.9459 2.26562 32.5547 2.26562 32.0737V25.9268C2.26562 25.4458 2.6569 25.0545 3.13789 25.0545H5.00069C5.53639 25.0545 5.99892 24.6792 6.10914 24.1552C6.7041 21.3298 7.80768 18.6674 9.38943 16.2417C9.68192 15.793 9.6203 15.2008 9.24148 14.8219L7.92255 13.503C7.58248 13.1629 7.58248 12.6096 7.92255 12.2695L12.269 7.923C12.6091 7.58293 13.1625 7.58293 13.5026 7.923L14.8215 9.24194C15.2004 9.62086 15.7929 9.68226 16.2412 9.38988C18.6667 7.80825 21.3292 6.70466 24.1547 6.1096C24.6789 5.99915 25.0541 5.53673 25.0541 5.00114V3.13789C25.0541 2.6569 25.4453 2.26562 25.9263 2.26562H32.0732C32.5542 2.26562 32.9455 2.6569 32.9455 3.13789V5.00069C32.9455 5.53639 33.3208 5.99881 33.8448 6.10914C36.6704 6.70421 39.3328 7.8078 41.7583 9.38943C42.207 9.6817 42.7992 9.6203 43.1781 9.24148L44.497 7.92255C44.8371 7.58248 45.3904 7.58248 45.7305 7.92255L50.077 12.269C50.4171 12.6091 50.4171 13.1625 50.077 13.5026L48.7581 14.8215C48.3792 15.2003 48.3176 15.7925 48.6101 16.2412C50.1919 18.6669 51.2954 21.3294 51.8904 24.1547C52.0007 24.6789 52.4633 25.0541 52.9989 25.0541H54.8621C55.3431 25.0541 55.7344 25.4453 55.7344 25.9263V32.0734Z" fill="#020288"/>
<path d="M36.4294 25.5081L32.0437 25.6704L32.7236 16.497C32.7614 15.9862 32.4519 15.5135 31.9685 15.3441C31.4851 15.1747 30.9481 15.3508 30.659 15.7736L20.5943 30.4845C20.357 30.8314 20.3313 31.281 20.5273 31.6527C20.7233 32.0243 21.109 32.257 21.5292 32.257H27.0721L25.83 41.4353C25.7586 41.9624 26.0637 42.4682 26.5632 42.6509C26.6909 42.6977 26.8223 42.72 26.9524 42.72C27.3308 42.72 27.6954 42.5296 27.9081 42.1956L37.4269 27.2486C37.6531 26.8934 37.6637 26.4422 37.4543 26.0769C37.2446 25.7116 36.8505 25.4919 36.4294 25.5081ZM28.7664 36.6297L29.4911 31.2761C29.5349 30.9523 29.4367 30.6251 29.2215 30.3788C29.0065 30.1327 28.6953 29.9914 28.3685 29.9914H23.6768L30.1532 20.5252L29.6907 26.7654C29.6669 27.0868 29.7811 27.4032 30.0047 27.6353C30.2283 27.8673 30.5399 27.9932 30.8623 27.9812L34.3565 27.8519L28.7664 36.6297Z" fill="#020288"/>
</svg>
