<svg width="60" height="60" viewBox="0 0 60 60" fill="none" xmlns="http://www.w3.org/2000/svg">
<path d="M8.44185 38.7979C7.79462 38.7979 7.26997 39.3226 7.26997 39.9697V49.9702C7.26997 50.6174 7.79462 51.142 8.44185 51.142H21.6629C22.3102 51.142 22.8348 50.6174 22.8348 49.9702V39.9697C22.8348 39.3226 22.3102 38.7979 21.6629 38.7979H8.44185ZM20.4911 48.7983H9.61372V41.1416H20.4911V48.7983Z" fill="#020288"/>
<path d="M60 20.0707C60 17.1455 57.6278 14.7656 54.7119 14.7656H42.0948L41.1325 15.4986C41.1325 15.7083 42.0884 16.9063 42.0757 17.1094H54.7119C56.3354 17.1094 57.6562 18.4378 57.6562 20.0707V23.5959H39.0033C38.0713 24.5318 37.0213 25.3075 35.9904 25.9397H57.6562V30.5188H2.34375V25.9397H25.5124C24.4815 25.3075 23.4314 24.5318 22.4995 23.5959H2.34375V20.0707C2.34375 18.4378 3.66457 17.1094 5.28809 17.1094H19.427C19.4143 16.9063 20.7246 16.0311 20.7246 15.8216L19.4079 14.7656H5.28809C2.37223 14.7656 0 17.1455 0 20.0707V53.6979C0 56.6231 2.37223 59.003 5.28809 59.003H54.7118C57.6277 59.003 59.9999 56.6231 59.9999 53.6979V43.3042C59.9999 43.2792 59.9991 43.2544 59.9974 43.2298C59.9989 43.2052 59.9999 43.1803 59.9999 43.1553V20.0707H60ZM57.6562 43.3041V53.6978C57.6562 55.3307 56.3353 56.6591 54.7119 56.6591H5.28809C3.66457 56.6591 2.34375 55.3307 2.34375 53.6979V32.8625H57.6562V43.1553C57.6562 43.1803 57.6571 43.2052 57.6587 43.2298C57.6571 43.2544 57.6562 43.2791 57.6562 43.3041Z" fill="#020288"/>
<path d="M46.0978 38.3184C42.4407 38.3184 39.4656 41.3021 39.4656 44.9695C39.4656 48.6368 42.4407 51.6204 46.0978 51.6204C49.7549 51.6204 52.73 48.6368 52.73 44.9695C52.73 41.3021 49.7549 38.3184 46.0978 38.3184ZM46.0978 49.2767C43.7332 49.2767 41.8093 47.3445 41.8093 44.9695C41.8093 42.5943 43.7332 40.6621 46.0978 40.6621C48.4625 40.6621 50.3863 42.5943 50.3863 44.9695C50.3863 47.3445 48.4625 49.2767 46.0978 49.2767Z" fill="#020288"/>
<path d="M39.0564 5.15023C36.1443 5.15023 33.6325 3.45207 32.4639 0.998047H29.039C27.8703 3.45207 25.3586 5.15023 22.4465 5.15023C21.362 5.15023 20.3331 4.91445 19.408 4.49234V16.4902C19.408 25.2656 30.7514 28.2603 30.7514 28.2603C30.7514 28.2603 42.0948 25.2657 42.0948 16.4902V4.49234C41.1698 4.91445 40.1408 5.15023 39.0564 5.15023Z" fill="#B2F0FB"/>
<path d="M30.379 18.2246C30.0701 18.2246 29.7728 18.1025 29.5528 17.8837L27.4594 15.8021C27.0004 15.3458 26.9984 14.6037 27.4547 14.1448C27.911 13.6857 28.6532 13.6837 29.112 14.1402L30.3034 15.3248L33.6703 11.3333C34.0877 10.8386 34.8271 10.7758 35.3217 11.1931C35.8164 11.6104 35.8792 12.3496 35.4619 12.8444L31.2749 17.8082C31.0637 18.0587 30.7575 18.2091 30.4303 18.2234C30.4132 18.2243 30.396 18.2246 30.379 18.2246Z" fill="#020288"/>
</svg>
