<svg width="60" height="60" viewBox="0 0 60 60" fill="none" xmlns="http://www.w3.org/2000/svg">
<g clip-path="url(#clip0)">
<path d="M21.6415 25.9911C22.5355 24.854 23.8992 24.1142 25.4276 24.1142C27.0367 24.1142 28.3636 25.1463 29.1662 25.9696L30.8722 25.9648C31.697 25.1423 33.0353 24.1142 34.5722 24.1142C36.0792 24.1142 37.4262 24.8335 38.3206 25.9436L38.8789 25.942L57.3621 8.77813C56.4246 7.81367 55.1133 7.21484 53.6601 7.21484H6.33983C4.88671 7.21484 3.57538 7.81367 2.63788 8.77813L21.1985 25.9924L21.6415 25.9911Z" fill="#A4FCC4"/>
<path d="M58.2052 7.96402C58.2042 7.96309 58.2034 7.96215 58.2026 7.96121C57 6.7243 55.3869 6.04297 53.6602 6.04297H6.33984C4.61437 6.04297 3.00234 6.72324 1.80012 7.95863C1.79965 7.9591 1.79906 7.95957 1.79859 7.96016C0.638789 9.15008 0 10.7207 0 12.3828V47.6164C0 49.3624 0.694805 50.9889 1.95645 52.1966C1.95715 52.1973 1.95785 52.1978 1.95844 52.1984C3.1425 53.332 4.69828 53.9561 6.33973 53.9561H53.66C55.3012 53.9561 56.857 53.332 58.041 52.1987C58.0418 52.198 58.0425 52.1973 58.0432 52.1966C59.3051 50.9891 60 49.3624 60 47.6164V12.3828C60 10.7225 59.3625 9.15348 58.2052 7.96402ZM53.6602 8.38672C54.7481 8.38672 55.7645 8.81574 56.5218 9.59492C56.5222 9.59539 56.5226 9.59574 56.5229 9.59621C57.2537 10.3459 57.6561 11.3355 57.6561 12.3828V47.6164C57.6561 48.3826 57.4438 49.1122 57.0464 49.7417L37.5273 35.0263C38.3394 34.3141 39.0046 33.6434 39.3587 33.105C39.9476 32.2089 40.7183 30.7878 40.6116 28.7993C40.4358 25.515 37.7829 22.9422 34.5721 22.9422C32.6191 22.9422 30.9904 24.1911 30.0166 25.1657C29.0621 24.1862 27.4516 22.9422 25.4275 22.9422C22.2168 22.9422 19.5639 25.515 19.3881 28.7995C19.2818 30.7924 20.0529 32.2118 20.6422 33.1063C20.99 33.6339 21.6436 34.2929 22.4438 34.9946L2.95242 49.7401C2.55574 49.1109 2.34375 48.3819 2.34375 47.6164V12.3828C2.34375 11.3355 2.74629 10.3459 3.47707 9.59609C3.47742 9.59574 3.47777 9.59527 3.47813 9.59492C4.23539 8.81586 5.25176 8.38672 6.33984 8.38672H53.6602ZM22.5993 31.8165C21.9346 30.8078 21.6742 29.9428 21.7286 28.9245C21.8359 26.9182 23.4953 25.286 25.4275 25.286C27.4309 25.286 29.0104 27.5983 29.0239 27.6186C29.2373 27.9402 29.5963 28.1347 29.9822 28.141C30.3677 28.1497 30.7332 27.962 30.957 27.6474C31.4243 26.9906 32.9849 25.2861 34.5721 25.2861C36.5044 25.2861 38.1637 26.9183 38.2712 28.9246C38.3257 29.9407 38.0651 30.8059 37.4003 31.8173C36.5878 33.0526 32.6817 35.9262 30.0087 37.7328C27.3259 35.9205 23.4064 33.0413 22.5993 31.8165ZM53.6602 51.6125H6.33984C5.79586 51.6125 5.26699 51.5039 4.77926 51.297L24.3109 36.5211C26.5252 38.2345 28.9307 39.8347 29.3633 40.1204C29.5591 40.2496 29.784 40.3143 30.009 40.3143C30.2339 40.3143 30.4589 40.2496 30.6547 40.1204C31.0837 39.8372 33.4596 38.2565 35.6599 36.5534L55.218 51.2983C54.7309 51.5042 54.203 51.6125 53.6602 51.6125Z" fill="#020288"/>
</g>
<defs>
<clipPath id="clip0">
<rect width="60" height="60" fill="white"/>
</clipPath>
</defs>
</svg>
