<svg width="58" height="52" viewBox="0 0 58 52" fill="none" xmlns="http://www.w3.org/2000/svg">
<path d="M39.2871 27.549C39.4444 26.9329 39.528 26.2875 39.528 25.6224C39.528 21.3315 36.0496 17.8531 31.7587 17.8531C30.2445 17.8531 28.8315 18.2863 27.6367 19.0355C26.8193 18.0666 25.5961 17.4512 24.2292 17.4512C21.7681 17.4512 19.773 19.4463 19.773 21.9074C19.773 22.7507 20.0072 23.5393 20.4143 24.2117C17.6607 24.9759 15.6397 27.5007 15.6397 30.4976C15.6397 33.4774 17.6378 35.9906 20.3674 36.7703C20.0181 34.8905 20.2818 33.1691 20.2818 33.1691C20.2818 33.1691 24.8405 32.4708 27.2216 34.8517C27.8884 35.5187 28.3138 36.3565 28.5806 37.2171L29.4111 37.2426C29.6773 36.373 30.1044 35.5252 30.7779 34.8517C33.159 32.4707 37.7176 33.1691 37.7176 33.1691C37.7176 33.1691 38.0506 35.3423 37.4729 37.4714C40.1983 37.3139 42.3598 35.0541 42.3598 32.2893C42.3596 30.177 41.0979 28.3595 39.2871 27.549Z" fill="#E2C4FF"/>
<path d="M52.2454 0.0859375H35.5194C34.8938 0.0859375 34.3866 0.593098 34.3866 1.21875V1.69113C34.3866 4.71348 31.9702 7.17236 29 7.17236C26.0298 7.17236 23.6134 4.71348 23.6134 1.69113V1.21875C23.6134 0.593098 23.1062 0.0859375 22.4806 0.0859375H5.75457C2.58157 0.0859375 0 2.69752 0 5.90758V24.3417C0 24.9674 0.50716 25.4745 1.13281 25.4745H8.1925V50.781C8.1925 51.4067 8.69966 51.9138 9.32531 51.9138H48.6747C49.3003 51.9138 49.8075 51.4067 49.8075 50.781V25.4745H56.8672C57.4928 25.4745 58 24.9674 58 24.3417V5.90758C58 2.69752 55.4184 0.0859375 52.2454 0.0859375ZM55.7344 23.2089H49.8075V16.3366C49.8075 15.7109 49.3003 15.2038 48.6747 15.2038C48.049 15.2038 47.5419 15.7109 47.5419 16.3366V49.6482H10.4581V16.3366C10.4581 15.7109 9.95096 15.2038 9.32531 15.2038C8.69966 15.2038 8.1925 15.7109 8.1925 16.3366V23.2089H2.26562V5.90758C2.26562 3.94679 3.83072 2.35156 5.75457 2.35156H21.3753C21.7073 6.31527 25.0002 9.4381 29 9.4381C32.9998 9.4381 36.2926 6.31539 36.6247 2.35156H52.2454C54.1693 2.35156 55.7344 3.94679 55.7344 5.90758V23.2089Z" fill="#020288"/>
<path d="M37.8893 32.0498C37.68 32.0178 32.7319 31.2963 29.9769 34.0512C29.5847 34.4434 29.2631 34.8799 28.9999 35.341C28.7366 34.8799 28.4149 34.4434 28.0227 34.0512C25.2677 31.2962 20.3198 32.0179 20.1103 32.0498C19.6211 32.1248 19.237 32.5087 19.1621 32.9981C19.13 33.2075 18.4086 38.1555 21.1635 40.9104C22.9466 42.6934 25.6482 43.0203 27.3893 43.0203C28.1909 43.0203 28.7888 42.951 28.9997 42.9227C29.2107 42.951 29.8085 43.0203 30.6102 43.0203C32.3512 43.0203 35.053 42.6933 36.8359 40.9104V40.9105C39.5908 38.1556 38.8694 33.2075 38.8373 32.9982C38.7626 32.5089 38.3786 32.1248 37.8893 32.0498ZM27.8568 40.7411C26.5596 40.7911 24.1342 40.6768 22.7658 39.3083C21.3858 37.9283 21.276 35.5114 21.3297 34.2175C22.6245 34.1638 25.041 34.2737 26.4207 35.6534C27.7995 37.0323 27.9102 39.4464 27.8568 40.7411ZM35.234 39.3082C33.854 40.6883 31.4371 40.7982 30.1431 40.7443C30.0894 39.4494 30.1994 37.033 31.579 35.6533C32.9579 34.2745 35.3723 34.1642 36.6668 34.2171C36.7168 35.5144 36.6025 37.9398 35.234 39.3082Z" fill="#020288"/>
</svg>
