<svg width="61" height="65" viewBox="0 0 61 65" fill="none" xmlns="http://www.w3.org/2000/svg">
<path d="M43.1951 24.8246L46.9841 21.0386C45.7471 19.8026 45.7471 17.7984 46.9841 16.5624L40.8866 10.4697C39.6496 11.7058 37.6439 11.7058 36.4068 10.4697L22.0404 24.8247H43.1951V24.8246Z" fill="#A4FCC4"/>
<path d="M55.3306 50.3937V60.488C55.3306 61.5759 54.4444 62.4609 53.355 62.4609H10.9833V26.0938H53.355C54.4443 26.0938 55.3306 26.9788 55.3306 28.0667V38.161H57.8697V28.0667C57.8697 25.8744 56.2971 24.0423 54.2202 23.6378L56.331 21.5286C57.0603 20.7999 57.462 19.8307 57.462 18.8C57.462 17.7692 57.0603 16.8 56.331 16.0713L41.3756 1.12795C39.8705 -0.375983 37.4218 -0.375983 35.9167 1.12795L13.4722 23.5546H5.10541C2.61604 23.5546 0.590698 25.5787 0.590698 28.0667V60.4881C0.590698 62.9761 2.61591 65.0002 5.10541 65.0002H53.355C55.8444 65.0002 57.8697 62.9761 57.8697 60.4881V50.3938H55.3306V50.3937ZM37.7114 2.92413C38.2267 2.4092 39.0655 2.4092 39.5808 2.92413L54.5362 17.8675C54.7855 18.1165 54.9229 18.4478 54.9229 18.8C54.9229 19.1521 54.7855 19.4834 54.5362 19.7325L50.7111 23.5545H17.0646L37.7114 2.92413ZM8.44412 62.4609H5.10541C4.01612 62.4609 3.12984 61.5759 3.12984 60.488V28.0667C3.12984 26.9788 4.01612 26.0938 5.10541 26.0938H8.44412V62.4609Z" fill="#020288"/>
<path d="M60.4088 51.6635H45.7063C41.6272 51.6635 38.3204 48.3567 38.3204 44.2776C38.3204 40.1984 41.6272 36.8916 45.7063 36.8916H60.4088V51.6635Z" fill="#A4FCC4"/>
<path d="M46.5536 48.4954C44.2264 48.4954 42.3329 46.603 42.3329 44.277C42.3329 41.9509 44.2264 40.0586 46.5536 40.0586C48.881 40.0586 50.7744 41.951 50.7744 44.277C50.7744 46.603 48.881 48.4954 46.5536 48.4954ZM46.5536 42.5976C45.6263 42.5976 44.8721 43.351 44.8721 44.2769C44.8721 45.2029 45.6263 45.9561 46.5536 45.9561C47.4809 45.9561 48.2353 45.2027 48.2353 44.2769C48.2353 43.351 47.4809 42.5976 46.5536 42.5976Z" fill="#020288"/>
</svg>
