<svg width="28" height="28" viewBox="0 0 28 28" fill="none" xmlns="http://www.w3.org/2000/svg">
<path fill-rule="evenodd" clip-rule="evenodd" d="M24.8889 0H3.11111C1.4 0 0 1.4 0 3.11111V24.8889C0 26.6 1.38444 28 3.11111 28H24.8889C26.6 28 28 26.6 28 24.8889V3.11111C28 1.4 26.6156 0 24.8889 0ZM14.0004 16.3489H12.4448V18.6667H10.1115V16.3333H5.44482V9.33333H7.77816V14H10.1115V9.33333H12.4448V14H14.0004V16.3489ZM20.9996 18.6667H23.6441L20.533 14L23.6441 9.33333H20.9996L17.8885 14V9.33333H15.5552V18.6667H17.8885V14L20.9996 18.6667Z" fill="#7600FF"/>
</svg>
