<svg width="49" height="49" viewBox="0 0 49 49" fill="none" xmlns="http://www.w3.org/2000/svg">
<path fill-rule="evenodd" clip-rule="evenodd" d="M43.5556 0H5.44444C2.45 0 0 2.45 0 5.44444V43.5556C0 46.55 2.42278 49 5.44444 49H43.5556C46.55 49 49 46.55 49 43.5556V5.44444C49 2.45 46.5772 0 43.5556 0ZM24.5015 28.61H21.7793V32.6661H17.696V28.5828H9.5293V16.3328H13.6126V24.4994H17.696V16.3328H21.7793V24.4994H24.5015V28.61ZM36.7485 32.6661H41.3763L35.9318 24.4994L41.3763 16.3328H36.7485L31.304 24.4994V16.3328H27.2207V32.6661H31.304V24.4994L36.7485 32.6661Z" fill="#7600FF"/>
</svg>
