<svg width="80" height="81" viewBox="0 0 80 81" fill="none" xmlns="http://www.w3.org/2000/svg">
<path d="M64.5049 78.7402H15.4951C15.2084 78.7402 14.9334 78.6263 14.7307 78.4236C14.528 78.2208 14.4141 77.9459 14.4141 77.6591V71.9867C14.4164 69.9555 15.2243 68.0082 16.6607 66.572C18.0971 65.1359 20.0445 64.3282 22.0757 64.3262H57.9243C59.9555 64.3282 61.903 65.1359 63.3393 66.572C64.7757 68.0082 65.5837 69.9555 65.586 71.9867V77.6591C65.586 77.9459 65.4721 78.2208 65.2693 78.4236C65.0666 78.6263 64.7916 78.7402 64.5049 78.7402ZM16.5762 76.5781H63.4238V71.9867C63.4218 70.5289 62.8417 69.1313 61.8108 68.1006C60.7798 67.0699 59.3822 66.49 57.9243 66.4883H22.0757C20.6179 66.49 19.2202 67.0699 18.1893 68.1006C17.1583 69.1313 16.5782 70.5289 16.5762 71.9867V76.5781Z" fill="black"/>
<path d="M54.975 66.488H25.029C24.8481 66.488 24.67 66.4426 24.5111 66.3559C24.3523 66.2692 24.2177 66.144 24.1198 65.9918L11.8636 46.9324C11.7512 46.7578 11.6914 46.5546 11.6914 46.347C11.6914 46.1393 11.7512 45.9361 11.8636 45.7616L39.0917 3.55939C39.1957 3.41582 39.3322 3.29894 39.49 3.21833C39.6479 3.13773 39.8226 3.0957 39.9998 3.0957C40.1771 3.0957 40.3518 3.13773 40.5097 3.21833C40.6675 3.29894 40.804 3.41582 40.9079 3.55939L68.135 45.767C68.2474 45.9415 68.3072 46.1447 68.3072 46.3524C68.3072 46.56 68.2474 46.7632 68.135 46.9378L55.8831 65.9918C55.7853 66.1439 55.6509 66.269 55.4923 66.3556C55.3336 66.4423 55.1558 66.4879 54.975 66.488V66.488ZM25.6161 64.3259H54.3847L65.9458 46.3486L39.9998 6.13993L14.0539 46.3486L25.6161 64.3259Z" fill="black"/>
<path d="M40 33.8147C39.7133 33.8147 39.4383 33.7008 39.2356 33.4981C39.0328 33.2953 38.9189 33.0204 38.9189 32.7336V4.14553C38.9189 3.85881 39.0328 3.58384 39.2356 3.38109C39.4383 3.17835 39.7133 3.06445 40 3.06445C40.2868 3.06445 40.5617 3.17835 40.7645 3.38109C40.9672 3.58384 41.0811 3.85881 41.0811 4.14553V32.7336C41.0811 33.0204 40.9672 33.2953 40.7645 33.4981C40.5617 33.7008 40.2868 33.8147 40 33.8147Z" fill="black"/>
<path d="M39.9999 43.9118C38.7875 43.9118 37.6024 43.5523 36.5944 42.8788C35.5863 42.2052 34.8007 41.2479 34.3367 40.1278C33.8728 39.0078 33.7514 37.7753 33.9879 36.5862C34.2244 35.3972 34.8082 34.305 35.6655 33.4477C36.5227 32.5904 37.6149 32.0066 38.804 31.7701C39.9931 31.5336 41.2255 31.655 42.3456 32.1189C43.4657 32.5829 44.423 33.3686 45.0965 34.3766C45.7701 35.3846 46.1296 36.5697 46.1296 37.7821C46.1276 39.4072 45.4811 40.9651 44.332 42.1142C43.1829 43.2633 41.6249 43.9098 39.9999 43.9118ZM39.9999 33.8145C39.2151 33.8145 38.4481 34.0472 37.7956 34.4832C37.1431 34.9191 36.6346 35.5388 36.3343 36.2638C36.034 36.9887 35.9554 37.7865 36.1085 38.5561C36.2616 39.3257 36.6395 40.0327 37.1944 40.5876C37.7492 41.1424 38.4562 41.5203 39.2258 41.6734C39.9955 41.8265 40.7932 41.7479 41.5182 41.4476C42.2432 41.1473 42.8628 40.6388 43.2988 39.9863C43.7347 39.3339 43.9674 38.5668 43.9674 37.7821C43.9663 36.7302 43.5479 35.7217 42.8041 34.9778C42.0603 34.234 41.0518 33.8157 39.9999 33.8145V33.8145Z" fill="black"/>
</svg>
