<svg xmlns="http://www.w3.org/2000/svg" width="25" height="30" viewBox="0 0 25 30">
  <metadata><?xpacket begin="﻿" id="W5M0MpCehiHzreSzNTczkc9d"?>
<x:xmpmeta xmlns:x="adobe:ns:meta/" x:xmptk="Adobe XMP Core 5.6-c142 79.160924, 2017/07/13-01:06:39        ">
   <rdf:RDF xmlns:rdf="http://www.w3.org/1999/02/22-rdf-syntax-ns#">
      <rdf:Description rdf:about=""/>
   </rdf:RDF>
</x:xmpmeta>
                                                                                                    
                                                                                                    
                                                                                                    
                                                                                                    
                                                                                                    
                                                                                                    
                                                                                                    
                                                                                                    
                                                                                                    
                                                                                                    
                                                                                                    
                                                                                                    
                                                                                                    
                                                                                                    
                                                                                                    
                                                                                                    
                                                                                                    
                                                                                                    
                                                                                                    
                                                                                                    
                           
<?xpacket end="w"?></metadata>
<defs>
    <style>
      .cls-1 {
        fill: #fff;
        fill-rule: evenodd;
      }
    </style>
  </defs>
  <path class="cls-1" d="M592.1,3063.44c-0.015-.81-0.03-1.57-0.03-2.31a1.044,1.044,0,0,0-1.039-1.05,14.218,14.218,0,0,1-10.648-4.07,1.042,1.042,0,0,0-1.448,0,14.217,14.217,0,0,1-10.647,4.07,1.045,1.045,0,0,0-1.04,1.05c0,0.74-.014,1.5-0.029,2.31-0.143,7.54-.338,17.86,12.1,22.22a0.993,0.993,0,0,0,.68,0C592.434,3081.3,592.239,3070.98,592.1,3063.44Zm-12.441,20.11c-10.667-3.91-10.5-12.49-10.362-20.07,0.008-.45.017-0.89,0.022-1.33a15.879,15.879,0,0,0,10.34-3.96A15.883,15.883,0,0,0,590,3062.15c0.006,0.44.014,0.88,0.022,1.33C590.161,3071.06,590.323,3079.64,579.655,3083.55Zm3.578-16.48-5.015,5.07-2.14-2.17a1.05,1.05,0,0,0-1.47,0,1.064,1.064,0,0,0,0,1.49l2.875,2.91a1.05,1.05,0,0,0,1.47,0l5.75-5.82a1.051,1.051,0,0,0,0-1.48A1.032,1.032,0,0,0,583.233,3067.07Z" transform="translate(-567.156 -3055.72)"/>
</svg>
