<svg xmlns="http://www.w3.org/2000/svg" width="27" height="34" viewBox="0 0 27 34">
  <metadata><?xpacket begin="﻿" id="W5M0MpCehiHzreSzNTczkc9d"?>
<x:xmpmeta xmlns:x="adobe:ns:meta/" x:xmptk="Adobe XMP Core 5.6-c142 79.160924, 2017/07/13-01:06:39        ">
   <rdf:RDF xmlns:rdf="http://www.w3.org/1999/02/22-rdf-syntax-ns#">
      <rdf:Description rdf:about=""/>
   </rdf:RDF>
</x:xmpmeta>
                                                                                                    
                                                                                                    
                                                                                                    
                                                                                                    
                                                                                                    
                                                                                                    
                                                                                                    
                                                                                                    
                                                                                                    
                                                                                                    
                                                                                                    
                                                                                                    
                                                                                                    
                                                                                                    
                                                                                                    
                                                                                                    
                                                                                                    
                                                                                                    
                                                                                                    
                                                                                                    
                           
<?xpacket end="w"?></metadata>
<defs>
    <style>
      .cls-1 {
        fill: #fff;
        fill-rule: evenodd;
      }
    </style>
  </defs>
  <path class="cls-1" d="M1348.91,3067.18l-0.76.84,3.45,3.18a4.018,4.018,0,0,1,1.27,2.93V3088H1354v-13.87a5.146,5.146,0,0,0-1.64-3.76Zm-4.47-13.18h-14.63a2.823,2.823,0,0,0-2.81,2.83v28.34a2.823,2.823,0,0,0,2.81,2.83h14.06v-1.01a12.989,12.989,0,0,1,2.16-7.18,0.561,0.561,0,0,0-.07-0.71l-3.94-3.97a1.829,1.829,0,1,1,2.65-2.52l5.56,5.59,0.79-.8-3.77-3.8v-16.77A2.823,2.823,0,0,0,1344.44,3054Zm1.68,18.47-0.65-.66a2.956,2.956,0,1,0-4.24,4.12l3.61,3.65a14.187,14.187,0,0,0-2.09,7.29h-12.94a1.7,1.7,0,0,1-1.69-1.7v-1.7h14.07v-1.14h-14.07v-23.8h18v13.94Zm0-15.07h-18v-0.57a1.7,1.7,0,0,1,1.69-1.7h14.63a1.688,1.688,0,0,1,1.68,1.7v0.57Zm-15.75,6.8h2.25a1.129,1.129,0,0,0,1.13-1.13v-2.27a1.123,1.123,0,0,0-1.13-1.13h-2.25a1.12,1.12,0,0,0-1.12,1.13v2.27A1.127,1.127,0,0,0,1330.37,3064.2Zm0-3.4h2.25v2.27h-2.25v-2.27Zm5.63,3.4h2.25a1.127,1.127,0,0,0,1.12-1.13v-2.27a1.12,1.12,0,0,0-1.12-1.13H1336a1.129,1.129,0,0,0-1.13,1.13v2.27A1.135,1.135,0,0,0,1336,3064.2Zm0-3.4h2.25v2.27H1336v-2.27Zm5.62,3.4h2.25a1.129,1.129,0,0,0,1.13-1.13v-2.27a1.123,1.123,0,0,0-1.13-1.13h-2.25a1.12,1.12,0,0,0-1.12,1.13v2.27A1.127,1.127,0,0,0,1341.62,3064.2Zm0-3.4h2.25v2.27h-2.25v-2.27Zm-11.25,9.07h2.25a1.131,1.131,0,0,0,1.13-1.14v-2.26a1.131,1.131,0,0,0-1.13-1.14h-2.25a1.129,1.129,0,0,0-1.12,1.14v2.26A1.129,1.129,0,0,0,1330.37,3069.87Zm0-3.4h2.25v2.26h-2.25v-2.26Zm0,9.06h2.25a1.123,1.123,0,0,0,1.13-1.13v-2.27a1.129,1.129,0,0,0-1.13-1.13h-2.25a1.127,1.127,0,0,0-1.12,1.13v2.27A1.12,1.12,0,0,0,1330.37,3075.53Zm0-3.4h2.25v2.27h-2.25v-2.27Zm5.63-2.26h2.25a1.129,1.129,0,0,0,1.12-1.14v-2.26a1.129,1.129,0,0,0-1.12-1.14H1336a1.137,1.137,0,0,0-1.13,1.14v2.26A1.137,1.137,0,0,0,1336,3069.87Zm0-3.4h2.25v2.26H1336v-2.26Zm5.62,3.4h2.25a1.131,1.131,0,0,0,1.13-1.14v-2.26a1.131,1.131,0,0,0-1.13-1.14h-2.25a1.129,1.129,0,0,0-1.12,1.14v2.26A1.129,1.129,0,0,0,1341.62,3069.87Zm0-3.4h2.25v2.26h-2.25v-2.26Zm-5.62,9.06h2.25a1.12,1.12,0,0,0,1.12-1.13v-2.27a1.127,1.127,0,0,0-1.12-1.13H1336a1.135,1.135,0,0,0-1.13,1.13v2.27A1.129,1.129,0,0,0,1336,3075.53Zm0-3.4h2.25v2.27H1336v-2.27Zm-5.63,9.07h2.25a1.129,1.129,0,0,0,1.13-1.13v-2.27a1.123,1.123,0,0,0-1.13-1.13h-2.25a1.12,1.12,0,0,0-1.12,1.13v2.27A1.127,1.127,0,0,0,1330.37,3081.2Zm0-3.4h2.25v2.27h-2.25v-2.27Zm5.63,3.4h2.25a1.127,1.127,0,0,0,1.12-1.13v-2.27a1.12,1.12,0,0,0-1.12-1.13H1336a1.129,1.129,0,0,0-1.13,1.13v2.27A1.135,1.135,0,0,0,1336,3081.2Zm0-3.4h2.25v2.27H1336v-2.27Zm0.56,6.8h1.13v1.13h-1.13v-1.13Z" transform="translate(-1327 -3054)"/>
</svg>
