<svg xmlns="http://www.w3.org/2000/svg" width="32" height="32" viewBox="0 0 32 32">
  <metadata><?xpacket begin="﻿" id="W5M0MpCehiHzreSzNTczkc9d"?>
<x:xmpmeta xmlns:x="adobe:ns:meta/" x:xmptk="Adobe XMP Core 5.6-c142 79.160924, 2017/07/13-01:06:39        ">
   <rdf:RDF xmlns:rdf="http://www.w3.org/1999/02/22-rdf-syntax-ns#">
      <rdf:Description rdf:about=""/>
   </rdf:RDF>
</x:xmpmeta>
                                                                                                    
                                                                                                    
                                                                                                    
                                                                                                    
                                                                                                    
                                                                                                    
                                                                                                    
                                                                                                    
                                                                                                    
                                                                                                    
                                                                                                    
                                                                                                    
                                                                                                    
                                                                                                    
                                                                                                    
                                                                                                    
                                                                                                    
                                                                                                    
                                                                                                    
                                                                                                    
                           
<?xpacket end="w"?></metadata>
<defs>
    <style>
      .cls-1 {
        fill: #fff;
        fill-rule: evenodd;
      }
    </style>
  </defs>
  <path id="icon" class="cls-1" d="M591.313,3344.69A15.989,15.989,0,1,0,596,3356,15.865,15.865,0,0,0,591.313,3344.69Zm2.351,17.43H591.28a20.305,20.305,0,0,0,.911-5.6h2.762A14.917,14.917,0,0,1,593.664,3362.12Zm-28.618-5.6h2.762a20.343,20.343,0,0,0,.911,5.6h-2.384A14.917,14.917,0,0,1,565.046,3356.52Zm1.289-6.64h2.384a20.343,20.343,0,0,0-.911,5.6h-2.762A14.917,14.917,0,0,1,566.335,3349.88Zm20.33,5.6a36.808,36.808,0,0,0-.486-5.6h4.007a19.173,19.173,0,0,1,.968,5.6h-4.489Zm-3.184,12.16h-2.963v-4.49h4.411a21.984,21.984,0,0,1-1.062,3.6C583.743,3367.07,583.614,3367.36,583.481,3367.64Zm-2.963,3.25v-2.21h2.409A4.5,4.5,0,0,1,580.518,3370.89Zm-3.445-2.21h2.408v2.21A4.5,4.5,0,0,1,577.073,3368.68Zm-0.941-1.93a22.183,22.183,0,0,1-1.062-3.6h4.411v4.49h-2.963C576.385,3367.36,576.256,3367.07,576.132,3366.75Zm0.386-22.4h2.963v4.5H575.07a22.311,22.311,0,0,1,1.062-3.61C576.256,3344.93,576.385,3344.63,576.518,3344.35Zm2.963-3.25v2.22h-2.408A4.561,4.561,0,0,1,579.481,3341.1Zm3.446,2.22h-2.409v-2.22A4.562,4.562,0,0,1,582.927,3343.32Zm0.94,1.92a22.111,22.111,0,0,1,1.062,3.61h-4.411v-4.5h2.963C583.614,3344.63,583.743,3344.93,583.867,3345.24Zm-4.386,4.64v5.6h-5.11a35.563,35.563,0,0,1,.5-5.6h4.61Zm0,6.64v5.6h-4.61a35.563,35.563,0,0,1-.5-5.6h5.11Zm1.037,5.6v-5.6h5.111a35.679,35.679,0,0,1-.5,5.6h-4.61Zm0-6.64v-5.6h4.61a35.679,35.679,0,0,1,.5,5.6h-5.111Zm5.469-6.63a23.569,23.569,0,0,0-1.156-3.99q-0.1-.255-0.212-0.51H587a14.949,14.949,0,0,1,2.8,4.5h-3.814Zm-1.868-5.53a9.358,9.358,0,0,0-1.184-1.76,9.95,9.95,0,0,1,2.981,1.76h-1.8Zm-8.239,0h-1.8a9.962,9.962,0,0,1,2.981-1.76A9.406,9.406,0,0,0,575.88,3343.32Zm-0.5,1.03q-0.108.255-.212,0.51a23.478,23.478,0,0,0-1.155,3.99H570.2a14.932,14.932,0,0,1,2.8-4.5h2.38Zm-1.56,5.53a36.936,36.936,0,0,0-.486,5.6h-4.489a19.174,19.174,0,0,1,.969-5.6h4.006Zm-4.975,6.64h4.489a36.936,36.936,0,0,0,.486,5.6h-4.006A19.232,19.232,0,0,1,568.845,3356.52Zm5.168,6.63a23.75,23.75,0,0,0,1.155,3.99c0.069,0.17.14,0.34,0.212,0.5H573a14.758,14.758,0,0,1-2.8-4.49h3.815Zm1.867,5.53a9.406,9.406,0,0,0,1.184,1.76,9.962,9.962,0,0,1-2.981-1.76h1.8Zm8.239,0h1.8a9.962,9.962,0,0,1-2.981,1.76A9.358,9.358,0,0,0,584.119,3368.68Zm0.5-1.04c0.072-.16.143-0.33,0.212-0.5a23.842,23.842,0,0,0,1.156-3.99H589.8a14.775,14.775,0,0,1-2.8,4.49h-2.381Zm1.56-5.52a36.808,36.808,0,0,0,.486-5.6h4.489a19.232,19.232,0,0,1-.968,5.6h-4.007Zm6.012-6.64a20.268,20.268,0,0,0-.911-5.6h2.384a14.917,14.917,0,0,1,1.289,5.6h-2.762Zm0.958-6.63H590.92a16.584,16.584,0,0,0-2.247-4.11q-0.15-.195-0.3-0.39H589.4c0.41,0.34.8,0.69,1.183,1.07A14.905,14.905,0,0,1,593.149,3348.85Zm-5.2-5.53h-0.5c-0.248-.26-0.5-0.49-0.762-0.72Q587.334,3342.93,587.95,3343.32Zm-15.4,0h-0.5q0.617-.39,1.265-0.72C573.055,3342.83,572.8,3343.06,572.553,3343.32Zm-3.134,2.1c0.378-.38.774-0.73,1.184-1.07h1.027q-0.154.2-.3,0.39a16.587,16.587,0,0,0-2.248,4.11H566.85A14.905,14.905,0,0,1,569.419,3345.42Zm-2.569,17.73h2.229a16.587,16.587,0,0,0,2.248,4.11c0.1,0.13.2,0.26,0.3,0.38H570.6a14.377,14.377,0,0,1-1.184-1.06A14.905,14.905,0,0,1,566.85,3363.15Zm5.2,5.53h0.5c0.248,0.25.5,0.49,0.762,0.71A13.029,13.029,0,0,1,572.05,3368.68Zm15.4,0h0.5a12.927,12.927,0,0,1-1.266.71C586.944,3369.17,587.2,3368.93,587.446,3368.68Zm3.134-2.1a14.365,14.365,0,0,1-1.183,1.06H588.37c0.1-.12.2-0.25,0.3-0.38a16.619,16.619,0,0,0,2.248-4.11h2.228A14.905,14.905,0,0,1,590.58,3366.58Z" transform="translate(-564 -3340)"/>
</svg>
