<svg xmlns="http://www.w3.org/2000/svg" width="32" height="32" viewBox="0 0 32 32">
  <metadata><?xpacket begin="﻿" id="W5M0MpCehiHzreSzNTczkc9d"?>
<x:xmpmeta xmlns:x="adobe:ns:meta/" x:xmptk="Adobe XMP Core 5.6-c142 79.160924, 2017/07/13-01:06:39        ">
   <rdf:RDF xmlns:rdf="http://www.w3.org/1999/02/22-rdf-syntax-ns#">
      <rdf:Description rdf:about=""/>
   </rdf:RDF>
</x:xmpmeta>
                                                                                                    
                                                                                                    
                                                                                                    
                                                                                                    
                                                                                                    
                                                                                                    
                                                                                                    
                                                                                                    
                                                                                                    
                                                                                                    
                                                                                                    
                                                                                                    
                                                                                                    
                                                                                                    
                                                                                                    
                                                                                                    
                                                                                                    
                                                                                                    
                                                                                                    
                                                                                                    
                           
<?xpacket end="w"?></metadata>
<defs>
    <style>
      .cls-1 {
        fill: #fff;
        fill-rule: evenodd;
      }
    </style>
  </defs>
  <path class="cls-1" d="M946.153,3079.03h0a16.277,16.277,0,0,0,5.816,5.82h0a16.012,16.012,0,0,0,21.876-21.88h0a16.19,16.19,0,0,0-5.816-5.82h0a16.012,16.012,0,0,0-21.876,21.88h0Zm18.14-17.54a8.99,8.99,0,0,1,.848.43,10.362,10.362,0,0,1,3.94,3.94c0.154,0.27.3,0.56,0.426,0.85h0a10.212,10.212,0,0,1,.925,4.29A10.445,10.445,0,0,1,960,3081.43a10.317,10.317,0,0,1-4.293-.92c-0.29-.13-0.573-0.28-0.848-0.43a10.355,10.355,0,0,1-3.94-3.94c-0.155-.28-0.3-0.56-0.427-0.85h0a10.246,10.246,0,0,1-.925-4.29A10.445,10.445,0,0,1,960,3060.57,10.321,10.321,0,0,1,964.293,3061.49Zm-16.66,17.3,2.034-2.04a0.142,0.142,0,0,1,.022.04c0.034,0.06.073,0.12,0.108,0.18,0.128,0.22.262,0.43,0.4,0.64,0.061,0.1.124,0.18,0.188,0.27q0.2,0.27.4,0.54c0.066,0.08.13,0.16,0.2,0.24,0.2,0.23.4,0.45,0.611,0.67l0.064,0.06c0.215,0.22.44,0.42,0.671,0.62,0.081,0.06.165,0.13,0.247,0.2,0.172,0.13.347,0.27,0.527,0.4,0.092,0.06.183,0.13,0.277,0.19,0.205,0.14.416,0.27,0.629,0.39,0.065,0.04.129,0.08,0.2,0.12,0.012,0.01.024,0.01,0.036,0.02l-2.035,2.03A14.707,14.707,0,0,1,947.633,3078.79ZM960,3085.61a14.7,14.7,0,0,1-6.527-1.53l2.119-2.12A11.789,11.789,0,0,0,971.826,3071a11.616,11.616,0,0,0-.87-4.41l2.12-2.12A14.624,14.624,0,0,1,960,3085.61Zm12.366-22.4-2.034,2.04c-0.007-.01-0.014-0.03-0.021-0.04-0.034-.06-0.073-0.12-0.109-0.18-0.128-.22-0.261-0.43-0.4-0.64-0.061-.1-0.124-0.18-0.188-0.27-0.13-.19-0.266-0.36-0.406-0.54-0.065-.08-0.129-0.16-0.2-0.24-0.2-.23-0.4-0.45-0.611-0.67l-0.065-.06c-0.215-.22-0.439-0.42-0.671-0.62-0.081-.07-0.165-0.13-0.247-0.2-0.172-.14-0.348-0.27-0.528-0.4-0.091-.06-0.182-0.13-0.275-0.19q-0.307-.21-0.629-0.39l-0.195-.12a0.072,0.072,0,0,0-.037-0.02l2.035-2.04A14.839,14.839,0,0,1,972.366,3063.21ZM960,3056.39a14.706,14.706,0,0,1,6.527,1.53l-2.12,2.12A11.788,11.788,0,0,0,948.174,3071a11.615,11.615,0,0,0,.869,4.41l-2.119,2.12A14.622,14.622,0,0,1,960,3056.39Z" transform="translate(-944 -3055)"/>
</svg>
