<svg width="80" height="81" viewBox="0 0 80 81" fill="none" xmlns="http://www.w3.org/2000/svg">
<path d="M74.9976 78.7402H5.00198C4.71526 78.7402 4.44028 78.6263 4.23754 78.4236C4.0348 78.2208 3.9209 77.9458 3.9209 77.6591V63.0007C3.92748 58.5937 5.68117 54.369 8.79754 51.2528C11.9139 48.1367 16.1387 46.3832 20.5458 46.377H59.4539C63.8609 46.3832 68.0857 48.1367 71.2021 51.2528C74.3185 54.369 76.0721 58.5937 76.0787 63.0007V77.6591C76.0787 77.9458 75.9648 78.2208 75.7621 78.4236C75.5593 78.6263 75.2844 78.7402 74.9976 78.7402V78.7402ZM6.08306 76.578H73.9166V63.0007C73.912 59.1665 72.3867 55.4906 69.6754 52.7795C66.9641 50.0684 63.2881 48.5434 59.4539 48.5391H20.5458C16.7115 48.5434 13.0355 50.0684 10.3242 52.7795C7.61289 55.4906 6.08764 59.1665 6.08306 63.0007V76.578Z" fill="black"/>
<path d="M39.6088 39.6374C35.992 39.6374 32.4565 38.565 29.4493 36.5556C26.4421 34.5463 24.0983 31.6903 22.7143 28.3489C21.3302 25.0075 20.9681 21.3307 21.6736 17.7834C22.3792 14.2362 24.1209 10.9779 26.6783 8.42045C29.2357 5.86304 32.494 4.12142 36.0412 3.41583C39.5885 2.71024 43.2653 3.07238 46.6067 4.45644C49.9481 5.8405 52.8041 8.18432 54.8134 11.1915C56.8228 14.1987 57.8953 17.7342 57.8953 21.351C57.8898 26.1992 55.9615 30.8472 52.5333 34.2754C49.1051 37.7036 44.457 39.632 39.6088 39.6374V39.6374ZM39.6088 5.22662C36.4197 5.22662 33.3022 6.1723 30.6506 7.94406C27.9989 9.71583 25.9322 12.2341 24.7118 15.1804C23.4914 18.1268 23.1721 21.3688 23.7943 24.4966C24.4164 27.6245 25.9521 30.4975 28.2071 32.7526C30.4622 35.0076 33.3353 36.5433 36.4631 37.1654C39.5909 37.7876 42.8329 37.4683 45.7793 36.2479C48.7256 35.0275 51.2439 32.9608 53.0157 30.3091C54.7874 27.6575 55.7331 24.54 55.7331 21.351C55.7282 17.076 54.0279 12.9775 51.005 9.9547C47.9822 6.93186 43.8837 5.23149 39.6088 5.22662V5.22662Z" fill="black"/>
<path d="M60.3341 78.7401H19.666C19.3793 78.7401 19.1043 78.6262 18.9016 78.4235C18.6989 78.2207 18.585 77.9458 18.585 77.659V67.792C18.585 67.5053 18.6989 67.2303 18.9016 67.0276C19.1043 66.8248 19.3793 66.7109 19.666 66.7109C19.9528 66.7109 20.2277 66.8248 20.4305 67.0276C20.6332 67.2303 20.7471 67.5053 20.7471 67.792V76.578H59.2531V67.792C59.2531 67.5053 59.367 67.2303 59.5697 67.0276C59.7725 66.8248 60.0474 66.7109 60.3341 66.7109C60.6209 66.7109 60.8958 66.8248 61.0986 67.0276C61.3013 67.2303 61.4152 67.5053 61.4152 67.792V77.659C61.4152 77.9458 61.3013 78.2207 61.0986 78.4235C60.8958 78.6262 60.6209 78.7401 60.3341 78.7401Z" fill="black"/>
</svg>
