<svg xmlns="http://www.w3.org/2000/svg" width="30" height="30" viewBox="0 0 30 30">
  <metadata><?xpacket begin="﻿" id="W5M0MpCehiHzreSzNTczkc9d"?>
<x:xmpmeta xmlns:x="adobe:ns:meta/" x:xmptk="Adobe XMP Core 5.6-c142 79.160924, 2017/07/13-01:06:39        ">
   <rdf:RDF xmlns:rdf="http://www.w3.org/1999/02/22-rdf-syntax-ns#">
      <rdf:Description rdf:about=""/>
   </rdf:RDF>
</x:xmpmeta>
                                                                                                    
                                                                                                    
                                                                                                    
                                                                                                    
                                                                                                    
                                                                                                    
                                                                                                    
                                                                                                    
                                                                                                    
                                                                                                    
                                                                                                    
                                                                                                    
                                                                                                    
                                                                                                    
                                                                                                    
                                                                                                    
                                                                                                    
                                                                                                    
                                                                                                    
                                                                                                    
                           
<?xpacket end="w"?></metadata>
<defs>
    <style>
      .cls-1 {
        fill: #fff;
        fill-rule: evenodd;
      }
    </style>
  </defs>
  <path class="cls-1" d="M1324.91,3345.63l2,3.49a0.5,0.5,0,0,0,.31.24l1.87,0.47,6.39,6.39,0.71-.7-6.5-6.5a0.478,0.478,0,0,0-.23-0.13l-1.79-.45-1.7-2.98,1.46-1.46,2.98,1.7,0.45,1.79a0.474,0.474,0,0,0,.13.24l6.5,6.49,0.7-.7-6.39-6.4-0.47-1.86a0.489,0.489,0,0,0-.24-0.32l-3.5-2a0.5,0.5,0,0,0-.6.09l-2,1.99A0.513,0.513,0,0,0,1324.91,3345.63Zm20.78,7.09-11,11-0.7-.71,10.99-10.99Zm-12.92,11.39a0.5,0.5,0,0,0-.43-0.24h-3a0.507,0.507,0,0,0-.43.24l-1.5,2.5a0.515,0.515,0,0,0,0,.51l1.5,2.5a0.507,0.507,0,0,0,.43.24h3a0.5,0.5,0,0,0,.43-0.24l1.5-2.5a0.515,0.515,0,0,0,0-.51Zm-0.71,4.75h-2.44l-1.2-2,1.2-2h2.44l1.2,2Zm16.77-13.99a5.983,5.983,0,0,0,6-5.96,6.262,6.262,0,0,0-.18-1.49,0.506,0.506,0,0,0-.61-0.36,0.478,0.478,0,0,0-.23.13l-3.11,3.11-2.47-.82-0.82-2.47,3.11-3.11a0.513,0.513,0,0,0,0-.71,0.564,0.564,0,0,0-.24-0.13,5.978,5.978,0,0,0-7.26,4.33,5.987,5.987,0,0,0-.06,2.65l-10.95,10.95a5.736,5.736,0,0,0-1.17-.12,6,6,0,1,0,6,5.99,5.809,5.809,0,0,0-.12-1.17l2.62-2.62,1.14,1.15a0.513,0.513,0,0,0,.71,0l0.25-.25a0.559,0.559,0,1,1,.79.79h0l-0.25.25a0.513,0.513,0,0,0,0,.71l5.96,5.96a4.034,4.034,0,1,0,5.73-5.68,0.022,0.022,0,0,0-.02-0.02l-5.96-5.97a0.513,0.513,0,0,0-.71,0l-0.25.25a0.559,0.559,0,0,1-.79-0.79h0l0.25-.25a0.513,0.513,0,0,0,0-.71l-1.15-1.14,2.62-2.62A5.809,5.809,0,0,0,1348.83,3354.87Zm1.97,16.99a3.213,3.213,0,0,1-1.07-.19l3.91-3.91A3.023,3.023,0,0,1,1350.8,3371.86Zm-5.67-12.99a1.567,1.567,0,0,0,.2,2.2,1.544,1.544,0,0,0,2,0l5.61,5.61c0.06,0.06.12,0.13,0.17,0.19l-4.27,4.28c-0.06-.06-0.13-0.12-0.19-0.18l-5.61-5.61a1.562,1.562,0,0,0-2.2-2.2l-0.8-.8,4.29-4.28Zm2.02-5.02-11.34,11.33a0.531,0.531,0,0,0-.13.48,5.03,5.03,0,1,1-6.11-3.64,4.96,4.96,0,0,1,2.48,0,0.5,0.5,0,0,0,.47-0.13l11.34-11.33a0.531,0.531,0,0,0,.13-0.48,4.989,4.989,0,0,1,5.13-6.2l-2.64,2.64a0.5,0.5,0,0,0-.12.51l1,3a0.518,0.518,0,0,0,.31.32l3,1a0.5,0.5,0,0,0,.51-0.12l2.64-2.64a2.62,2.62,0,0,1,.01.28,4.96,4.96,0,0,1-6.21,4.84,0.486,0.486,0,0,0-.47.14h0Zm3.54,14.16-0.71.71-5-5,0.71-.71Z" transform="translate(-1324.84 -3342.88)"/>
</svg>
