<svg xmlns="http://www.w3.org/2000/svg" width="35" height="21" viewBox="0 0 35 21">
  <metadata><?xpacket begin="﻿" id="W5M0MpCehiHzreSzNTczkc9d"?>
<x:xmpmeta xmlns:x="adobe:ns:meta/" x:xmptk="Adobe XMP Core 5.6-c142 79.160924, 2017/07/13-01:06:39        ">
   <rdf:RDF xmlns:rdf="http://www.w3.org/1999/02/22-rdf-syntax-ns#">
      <rdf:Description rdf:about=""/>
   </rdf:RDF>
</x:xmpmeta>
                                                                                                    
                                                                                                    
                                                                                                    
                                                                                                    
                                                                                                    
                                                                                                    
                                                                                                    
                                                                                                    
                                                                                                    
                                                                                                    
                                                                                                    
                                                                                                    
                                                                                                    
                                                                                                    
                                                                                                    
                                                                                                    
                                                                                                    
                                                                                                    
                                                                                                    
                                                                                                    
                           
<?xpacket end="w"?></metadata>
<defs>
    <style>
      .cls-1 {
        fill: #fff;
        fill-rule: evenodd;
      }
    </style>
  </defs>
  <path class="cls-1" d="M970.635,3361.55c-0.687-1.37-3.144-3.28-5.518-5.12-1.324-1.03-2.575-2-3.373-2.77a0.759,0.759,0,0,0-.763-0.16c-0.491.17-.795,0.3-1.034,0.4a2.471,2.471,0,0,1-.978.26,0.714,0.714,0,0,0-.534.31,2.269,2.269,0,0,1-2.812,1.12,0.342,0.342,0,0,1-.29-0.26c-0.153-.61.616-2.04,1.612-3,2.369-2.27,3.591-2.84,6.173-1.74,2.928,1.26,5.862,2.25,5.891,2.26a0.743,0.743,0,0,0,.929-0.44,0.7,0.7,0,0,0-.449-0.89c-0.029-.01-2.905-0.97-5.775-2.21-3.344-1.43-5.178-.49-7.8,2.03-1,.96-2.352,2.9-2,4.32a1.771,1.771,0,0,0,1.252,1.26,3.736,3.736,0,0,0,4.283-1.41,3.972,3.972,0,0,0,1.1-.33c0.137-.06.3-0.13,0.51-0.21,0.834,0.75,1.96,1.63,3.146,2.54,2.143,1.67,4.575,3.56,5.121,4.65a0.8,0.8,0,0,1-.217,1.05,0.833,0.833,0,0,1-.9.17,0.726,0.726,0,0,0-.788-0.02,0.674,0.674,0,0,0-.351.67,0.849,0.849,0,0,1-.559.79,1.129,1.129,0,0,1-1.136.02,0.768,0.768,0,0,0-.757-0.14,0.721,0.721,0,0,0-.466.59,1.334,1.334,0,0,1-.861,1.07,0.8,0.8,0,0,1-.837-0.12,0.734,0.734,0,0,0-.666-0.16,0.7,0.7,0,0,0-.512.44c-0.028.07-.091,0.24-0.773,0.24a4.35,4.35,0,0,1-1.787-.59c-0.511-.32-3.721-2.62-6.493-4.85-0.39-.32-1.064-0.99-1.659-1.59-0.528-.53-1.01-1.01-1.258-1.21a0.755,0.755,0,0,0-1.028.08,0.684,0.684,0,0,0,.086.99c0.226,0.18.663,0.63,1.146,1.11,0.65,0.65,1.323,1.33,1.775,1.69,2.715,2.18,5.979,4.54,6.629,4.95a5.741,5.741,0,0,0,2.589.82,2.577,2.577,0,0,0,1.655-.47,2.368,2.368,0,0,0,1.658-.02,2.841,2.841,0,0,0,1.518-1.34,2.973,2.973,0,0,0,1.831-.26,2.393,2.393,0,0,0,1.217-1.22,2.474,2.474,0,0,0,1.673-.57A2.176,2.176,0,0,0,970.635,3361.55Zm-13.052-11.6h-6.562a0.7,0.7,0,1,0,0,1.4h6.562A0.7,0.7,0,1,0,957.583,3349.95Zm15.189,10.11a0.755,0.755,0,0,0-1.012-.19l-2.132,1.38a0.681,0.681,0,0,0-.2.97,0.744,0.744,0,0,0,.607.31,0.752,0.752,0,0,0,.405-0.12l2.133-1.37A0.693,0.693,0,0,0,972.772,3360.06Zm-4.527,3.35c-0.522-.4-2.857-2.69-4.3-4.14a0.749,0.749,0,0,0-1.032-.02,0.68,0.68,0,0,0-.021.99c0.374,0.37,3.68,3.68,4.449,4.27a0.752,0.752,0,0,0,.451.15,0.768,0.768,0,0,0,.574-0.27A0.676,0.676,0,0,0,968.245,3363.41Zm-2.914,1.4c-0.873-.67-3.068-2.91-3.564-3.43a0.758,0.758,0,0,0-1.031-.04,0.683,0.683,0,0,0-.044.99c0.027,0.03,2.646,2.74,3.728,3.57a0.713,0.713,0,0,0,.455.16,0.758,0.758,0,0,0,.57-0.27A0.678,0.678,0,0,0,965.331,3364.81Zm-2.9,1.41c-1.039-.84-3.167-3.02-3.583-3.44a0.748,0.748,0,0,0-1.031-.04,0.682,0.682,0,0,0-.035.99c0.6,0.62,2.634,2.69,3.709,3.56a0.753,0.753,0,0,0,.469.17,0.761,0.761,0,0,0,.559-0.25A0.685,0.685,0,0,0,962.429,3366.22Zm-10.907-17.47c-1.249-1.14-6.247-1.51-7.749-1.59a0.748,0.748,0,0,0-.544.18,0.707,0.707,0,0,0-.229.51v12.61a0.72,0.72,0,0,0,.729.7H948.1a0.731,0.731,0,0,0,.693-0.49c0.106-.31,2.619-7.72,2.95-11.36A0.662,0.662,0,0,0,951.522,3348.75Zm-3.95,11.01h-3.114V3348.6a22.927,22.927,0,0,1,5.791,1A71.59,71.59,0,0,1,947.572,3359.76Zm29.7-11.21a23.5,23.5,0,0,0-9.035,1.47,0.7,0.7,0,0,0-.389.44,0.666,0.666,0,0,0,.08.56c0.9,1.4,3.723,9.13,4.266,11.02a0.723,0.723,0,0,0,.7.52h4.375a0.72,0.72,0,0,0,.729-0.7v-12.61A0.72,0.72,0,0,0,977.271,3348.55Zm-0.729,12.61h-3.1c-0.691-2.17-2.733-7.8-3.872-10.13a24.369,24.369,0,0,1,6.973-1.07v11.2Z" transform="translate(-943 -3347.16)"/>
</svg>
