<svg width="80" height="81" viewBox="0 0 80 81" fill="none" xmlns="http://www.w3.org/2000/svg">
<path d="M58.538 35.5239H56.3759V31.605C56.3759 27.3523 54.6865 23.2739 51.6794 20.2668C48.6724 17.2597 44.5939 15.5704 40.3413 15.5704C36.0886 15.5704 32.0102 17.2597 29.0031 20.2668C25.996 23.2739 24.3067 27.3523 24.3067 31.605V35.5271H22.1445V31.605C22.1445 29.2153 22.6152 26.8491 23.5297 24.6414C24.4441 22.4336 25.7845 20.4276 27.4742 18.7379C29.164 17.0482 31.17 15.7078 33.3777 14.7933C35.5854 13.8789 37.9517 13.4082 40.3413 13.4082C42.7309 13.4082 45.0971 13.8789 47.3049 14.7933C49.5126 15.7078 51.5186 17.0482 53.2083 18.7379C54.8981 20.4276 56.2384 22.4336 57.1529 24.6414C58.0674 26.8491 58.538 29.2153 58.538 31.605V35.5239Z" fill="black"/>
<path d="M68.1543 66.4461C60.5405 57.9232 56.3463 46.8864 56.3781 35.458L58.5403 35.5877C58.6174 46.4335 62.6102 56.8862 69.7835 65.0213L68.1543 66.4461Z" fill="black"/>
<path d="M12.4473 65.9838L10.8105 64.5687C17.8856 56.5405 21.8991 46.2721 22.1435 35.5741L24.3057 35.4746C24.336 36.1276 24.896 51.6184 12.4473 65.9838Z" fill="black"/>
<path d="M40.0001 78.7401C24.585 78.7401 8.20117 75.2266 8.20117 68.7153C8.20117 62.2039 24.585 58.6904 40.0001 58.6904C55.4152 58.6904 71.799 62.2039 71.799 68.7153C71.799 75.2266 55.4152 78.7401 40.0001 78.7401ZM40.0001 60.8526C22.5352 60.8526 10.3633 64.9964 10.3633 68.7153C10.3633 72.4342 22.5352 76.578 40.0001 76.578C57.4649 76.578 69.6368 72.4342 69.6368 68.7153C69.6368 64.9964 57.4649 60.8526 40.0001 60.8526Z" fill="black"/>
<path d="M39.9999 68.3398C37.7773 68.352 35.6381 67.4944 34.0396 65.9502C32.441 64.406 31.5099 62.2977 31.4453 60.076L33.6075 60.0068C33.6645 61.6643 34.363 63.2348 35.5557 64.3872C36.7484 65.5395 38.342 66.1836 40.0005 66.1836C41.6589 66.1836 43.2525 65.5395 44.4452 64.3872C45.6379 63.2348 46.3364 61.6643 46.3934 60.0068L48.5556 60.076C48.491 62.2979 47.5597 64.4063 45.9609 65.9505C44.3621 67.4948 42.2227 68.3523 39.9999 68.3398V68.3398Z" fill="black"/>
<path d="M35.0196 15.7272H32.8574V10.2072C32.8574 8.31279 33.61 6.49602 34.9495 5.1565C36.289 3.81699 38.1058 3.06445 40.0001 3.06445C41.8945 3.06445 43.7113 3.81699 45.0508 5.1565C46.3903 6.49602 47.1428 8.31279 47.1428 10.2072V15.4709H44.9807V10.2072C44.9807 8.88624 44.4559 7.61941 43.5219 6.68538C42.5879 5.75135 41.3211 5.22662 40.0001 5.22662C38.6792 5.22662 37.4124 5.75135 36.4784 6.68538C35.5443 7.61941 35.0196 8.88624 35.0196 10.2072V15.7272Z" fill="black"/>
</svg>
