<svg width="24" height="28" viewBox="0 0 24 28" fill="none" xmlns="http://www.w3.org/2000/svg">
<path fill-rule="evenodd" clip-rule="evenodd" d="M2 25.6944L0 27.7778V0L2 2.08333L4 0L6 2.08333L8 0L10 2.08333L12 0L14 2.08333L16 0L18 2.08333L20 0L22 2.08333L24 0V27.7778L22 25.6944L20 27.7778L18 25.6944L16 27.7778L14 25.6944L12 27.7778L10 25.6944L8 27.7778L6 25.6944L4 27.7778L2 25.6944ZM19.9994 9.72211H3.99938V6.94434H19.9994V9.72211ZM3.99938 15.2778H19.9994V12.5H3.99938V15.2778ZM3.99938 20.8334H19.9994V18.0557H3.99938V20.8334Z" fill="#258AFF"/>
</svg>
