<svg width="16" height="19" viewBox="0 0 16 19" fill="none" xmlns="http://www.w3.org/2000/svg">
<path d="M4.61012 10.0582C3.27422 9.03316 2.41109 7.41818 2.41109 5.6048C2.41109 2.51433 4.91824 0 7.99994 0C11.0816 0 13.5888 2.51433 13.5888 5.60486C13.5888 7.41824 12.7257 9.03321 11.3898 10.0583C13.9573 10.2094 16 12.3521 16 14.9642V18.42C16 18.7403 15.741 19 15.4217 19H0.578311C0.258967 19 0 18.7403 0 18.42V14.9642C-5.72205e-05 12.3521 2.04259 10.2094 4.61012 10.0582ZM12.4322 5.60486C12.4322 3.15392 10.4439 1.15993 7.99994 1.15993C5.556 1.15993 3.56771 3.15392 3.56771 5.60486C3.56771 8.0558 5.556 10.0498 7.99994 10.0498C10.4439 10.0498 12.4322 8.05574 12.4322 5.60486ZM1.15656 17.84H14.8433V14.9642C14.8433 12.8939 13.1638 11.2097 11.0995 11.2097H4.90043C2.83609 11.2097 1.15662 12.8939 1.15662 14.9642V17.84H1.15656Z" fill="white"/>
</svg>
