<svg width="23" height="26" viewBox="0 0 23 26" fill="none" xmlns="http://www.w3.org/2000/svg">
<path d="M16.3 13.6369C18.1164 12.2471 19.2899 10.0575 19.2899 7.59893C19.2899 3.4089 15.881 0 11.6909 0C7.50083 0 4.09193 3.4089 4.09193 7.599C4.09193 10.0576 5.2655 12.2471 7.08188 13.6369C3.59081 13.8419 0.813477 16.7468 0.813477 20.2884V24.9737C0.813477 25.408 1.16559 25.76 1.59979 25.76H21.7819C22.2161 25.76 22.5682 25.408 22.5682 24.9737V20.2884C22.5683 16.7468 19.791 13.8418 16.3 13.6369ZM5.66455 7.599C5.66455 4.27605 8.36798 1.57263 11.6909 1.57263C15.0139 1.57263 17.7173 4.27605 17.7173 7.599C17.7173 10.922 15.0139 13.6254 11.6909 13.6254C8.36798 13.6254 5.66455 10.9219 5.66455 7.599ZM20.9957 24.1873H2.38618V20.2883C2.38618 17.4815 4.66971 15.1979 7.47653 15.1979H15.9053C18.7121 15.1979 20.9956 17.4815 20.9956 20.2883V24.1873H20.9957Z" fill="black"/>
</svg>
