<svg width="35" height="35" viewBox="0 0 35 35" fill="none" xmlns="http://www.w3.org/2000/svg">
<path d="M30.8333 16.6667H28.3333V10C28.3333 8.16667 26.8333 6.66667 25 6.66667H18.3333V4.16667C18.3333 1.86667 16.4667 0 14.1667 0C11.8667 0 10 1.86667 10 4.16667V6.66667H3.33333C1.5 6.66667 0.0166667 8.16667 0.0166667 10V16.3333H2.5C4.98333 16.3333 7 18.35 7 20.8333C7 23.3167 4.98333 25.3333 2.5 25.3333H0V31.6667C0 33.5 1.5 35 3.33333 35H9.66667V32.5C9.66667 30.0167 11.6833 28 14.1667 28C16.65 28 18.6667 30.0167 18.6667 32.5V35H25C26.8333 35 28.3333 33.5 28.3333 31.6667V25H30.8333C33.1333 25 35 23.1333 35 20.8333C35 18.5333 33.1333 16.6667 30.8333 16.6667Z" fill="white"/>
</svg>
