<svg width="47" height="46" viewBox="0 0 47 46" fill="none" xmlns="http://www.w3.org/2000/svg">
<path d="M1.34281 16.4442C1.34281 16.4442 0.230218 15.6449 1.56533 14.5776L4.67595 11.8054C4.67595 11.8054 5.56602 10.8721 6.50709 11.6852L35.2119 33.3453V43.7318C35.2119 43.7318 35.198 45.3628 33.098 45.1826L1.34281 16.4442Z" fill="#2489CA"/>
<path d="M8.74249 23.1387L1.34376 29.8428C1.34376 29.8428 0.583487 30.4064 1.34376 31.4137L4.77888 34.5278C4.77888 34.5278 5.59478 35.401 6.80009 34.4076L14.6439 28.4798L8.74249 23.1387Z" fill="#1070B3"/>
<path d="M21.7317 23.1943L35.3007 12.8679L35.2126 2.53684C35.2126 2.53684 34.6331 0.28212 32.7 1.45568L14.6436 17.8347L21.7317 23.1943Z" fill="#0877B9"/>
<path d="M33.0989 45.1959C33.887 45.9998 34.8419 45.7365 34.8419 45.7365L45.4162 40.5432C46.7699 39.6238 46.5798 38.4825 46.5798 38.4825V7.4709C46.5798 6.1079 45.1798 5.63663 45.1798 5.63663L36.0148 1.23345C34.0121 -0.000173032 32.7002 1.45523 32.7002 1.45523C32.7002 1.45523 34.3876 0.244705 35.2128 2.53639V43.5418C35.2128 43.8237 35.1525 44.1009 35.032 44.3504C34.7909 44.8355 34.2671 45.2883 33.0108 45.0989L33.0989 45.1959Z" fill="#3C99D4"/>
</svg>
