<svg width="32" height="36" viewBox="0 0 32 36" fill="none" xmlns="http://www.w3.org/2000/svg">
<path fill-rule="evenodd" clip-rule="evenodd" d="M28.4444 3.55556H21.0133C20.2667 1.49333 18.3111 0 16 0C13.6889 0 11.7333 1.49333 10.9867 3.55556H3.55556C1.6 3.55556 0 5.15556 0 7.11111V32C0 33.9556 1.6 35.5556 3.55556 35.5556H28.4444C30.4 35.5556 32 33.9556 32 32V7.11111C32 5.15556 30.4 3.55556 28.4444 3.55556ZM16 3.55556C16.9778 3.55556 17.7778 4.35556 17.7778 5.33333C17.7778 6.31111 16.9778 7.11111 16 7.11111C15.0222 7.11111 14.2222 6.31111 14.2222 5.33333C14.2222 4.35556 15.0222 3.55556 16 3.55556ZM5.33333 21.3335L12.4444 28.4446L26.6667 14.2224L24.16 11.6979L12.4444 23.4135L7.84 18.8268L5.33333 21.3335Z" fill="url(#paint0_linear)"/>
<defs>
<linearGradient id="paint0_linear" x1="5.68889" y1="4.74074" x2="28.7833" y2="30.4056" gradientUnits="userSpaceOnUse">
<stop stop-color="#72CFFF"/>
<stop offset="1" stop-color="#1595FF"/>
</linearGradient>
</defs>
</svg>
