<svg width="36" height="35" viewBox="0 0 36 35" fill="none" xmlns="http://www.w3.org/2000/svg">
<path fill-rule="evenodd" clip-rule="evenodd" d="M15.8291 22.4598C13.7889 21.7211 12.3116 19.7864 12.3116 17.5C12.3116 15.2136 13.7889 13.2789 15.8291 12.5402V0C6.94724 0.879397 0 8.37186 0 17.5C0 26.6281 6.94724 34.1206 15.8291 35V22.4598ZM19.3467 12.5402C20.8417 13.0678 22.0025 14.2462 22.5477 15.7412H35.0879C34.2613 7.4397 27.6482 0.826633 19.3467 0V12.5402ZM19.3467 22.4601C20.8417 21.9149 22.0201 20.7541 22.5477 19.2591H35.0879C34.2613 27.5606 27.6482 34.1737 19.3467 35.0003V22.4601Z" fill="url(#paint0_linear)"/>
<defs>
<linearGradient id="paint0_linear" x1="6.23786" y1="4.66671" x2="28.5875" y2="32.3327" gradientUnits="userSpaceOnUse">
<stop stop-color="#FFB867"/>
<stop offset="1" stop-color="#FF675E"/>
</linearGradient>
</defs>
</svg>
