<svg width="60" height="60" viewBox="0 0 60 60" fill="none" xmlns="http://www.w3.org/2000/svg">
<g clip-path="url(#clip0)">
<path d="M30 60C46.5685 60 60 46.5685 60 30C60 13.4315 46.5685 0 30 0C13.4315 0 0 13.4315 0 30C0 46.5685 13.4315 60 30 60Z" fill="url(#paint0_linear)"/>
<path d="M47.9814 12.1322L32.0369 28.0767V15.2739L10.6803 36.633C9.95804 34.5419 9.48326 32.3397 9.48326 29.9998C9.48326 18.6845 18.6898 9.47792 30.0065 9.47792C33.7871 9.47792 37.2874 10.5778 40.3331 12.3683L43.8902 8.81246C39.7702 6.08736 34.9398 4.63386 30.0001 4.63281C16.0128 4.63281 4.63184 16.0113 4.63184 29.9998C4.63001 36.6996 7.28782 43.1261 12.0213 47.8675L27.9318 31.9571V44.7561L49.3199 23.3667C50.0422 25.4578 50.517 27.66 50.517 29.9998C50.517 41.3164 41.3104 50.5218 29.9951 50.5218C26.2069 50.5218 22.7116 49.4219 19.6672 47.6314L16.1113 51.186C20.2312 53.9114 25.0616 55.3654 30.0014 55.3669C43.99 55.3669 55.3684 43.9859 55.3684 29.9998C55.3709 23.3004 52.7141 16.874 47.9814 12.1322Z" fill="white"/>
</g>
<defs>
<linearGradient id="paint0_linear" x1="30" y1="0" x2="30" y2="60" gradientUnits="userSpaceOnUse">
<stop stop-color="#2882C7"/>
<stop offset="1" stop-color="#1F5F99"/>
</linearGradient>
<clipPath id="clip0">
<rect width="60" height="60" fill="white"/>
</clipPath>
</defs>
</svg>
