<svg width="60" height="60" viewBox="0 0 60 60" fill="none" xmlns="http://www.w3.org/2000/svg">
<path d="M0 30C0 13.4315 13.4315 0 30 0C46.5685 0 60 13.4315 60 30C60 46.5685 46.5685 60 30 60C13.4315 60 0 46.5685 0 30Z" fill="url(#paint0_radial)"/>
<path d="M38.8626 25.377C37.1386 25.377 36.5495 26.2481 36.5495 26.9668C36.5495 27.7507 36.9423 28.2952 39.2554 29.493C42.6813 31.1482 43.7506 32.7379 43.7506 35.0682C43.7506 38.5527 41.0884 40.4256 37.4878 40.4256C35.5893 40.4256 33.9527 40.0335 33.0144 39.4892C32.8617 39.4238 32.8399 39.315 32.8399 39.1407V35.9393C32.8399 35.7216 32.949 35.6561 33.1018 35.7651C34.4765 36.6581 36.0476 37.05 37.4878 37.05C39.2117 37.05 39.9318 36.3313 39.9318 35.3513C39.9318 34.5673 39.4299 33.8704 37.2259 32.7379C34.1272 31.2571 32.8399 29.7544 32.8399 27.2499C32.8399 24.4405 35.0439 22.1103 38.8626 22.1103C40.7392 22.1103 42.0485 22.3935 42.7686 22.7201C42.9431 22.829 42.9868 23.0032 42.9868 23.1556V26.1391C42.9868 26.3133 42.8777 26.4223 42.6594 26.3569C41.6993 25.7473 40.2809 25.377 38.8626 25.377ZM20.0961 27.9686C20.598 28.0121 20.9909 28.0121 21.8637 28.0121C24.4169 28.0121 26.8172 27.1193 26.8172 23.6566C26.8172 20.8908 25.0933 19.4969 22.1911 19.4969C21.3182 19.4969 20.489 19.5405 20.0961 19.5623V27.9686ZM16.212 16.4044C16.212 16.252 16.5175 16.1431 16.692 16.1431C18.0887 16.0777 20.1617 16.0342 22.322 16.0342C28.3665 16.0342 30.7231 19.3444 30.7231 23.5694C30.7231 29.101 26.708 31.4748 21.7764 31.4748C20.9472 31.4748 20.6636 31.4313 20.0743 31.4313V39.794C20.0743 39.9682 20.0089 40.0553 19.8125 40.0553H16.4738C16.2993 40.0553 16.2119 39.99 16.2119 39.794L16.212 16.4044Z" fill="#0CB6FF"/>
<defs>
<radialGradient id="paint0_radial" cx="0" cy="0" r="1" gradientUnits="userSpaceOnUse" gradientTransform="translate(19.7611 13.4461) scale(45.6 45.3869)">
<stop stop-color="#34364E" stop-opacity="0.98"/>
<stop offset="1" stop-color="#0C0824"/>
</radialGradient>
</defs>
</svg>
