<svg width="76" height="80" viewBox="0 0 76 80" fill="none" xmlns="http://www.w3.org/2000/svg">
<g clip-path="url(#clip0)">
<path d="M36.4 67.9C36.8 66.9 37.3 65.9 37.6 64.7C34.3 67 30.2 68.1 25.8 67.5C18.6 66.5 12.9 60.7 11.9 53.5C11 46.8 14.2 40.7 19.3 37.4C19.3 37.4 19.3 37.3 19.3 37.2C19.3 37 19.4 36.5 19.5 36C20.4 30.7 23.3 26.1 27.4 23C13.4 23.3 1.9 34 0.2 47.7C0.1 48.8 0 50 0 51.2C0 61 5 69.6 12.5 74.7C18.2 78.6 25.8 78.5 31.2 74.1C33.2 72.5 35 70.5 36.3 68.2C36.3 68.1 36.4 68 36.4 67.9Z" fill="url(#paint0_linear)"/>
<path d="M75.5998 37.0002C75.6998 37.1002 75.6998 37.3002 75.6998 37.4002C75.6998 37.4002 75.4998 34.5002 73.9998 31.3002C73.8998 31.2002 73.8998 31.0002 73.7998 30.9002C72.1998 27.6002 69.1998 24.0002 63.7998 23.4002C63.7998 23.4002 63.1998 23.3002 62.3998 23.3002C61.4998 23.2002 60.2998 23.1002 59.1998 23.0002C59.0998 23.0002 58.9998 23.0002 58.8998 23.0002C58.7998 23.0002 58.6998 23.0002 58.4998 23.0002C57.3998 22.5002 57.3998 19.1002 57.3998 16.4002C57.3998 15.3002 57.3998 14.1002 57.3998 13.0002C57.3998 6.6002 51.1998 0.600195 43.4998 0.100195C41.4998 0.00019531 40.7998 0.200195 40.5998 0.700195V12.8002C40.5998 12.9002 40.5998 12.9002 40.5998 13.0002C40.5998 14.1002 40.5998 15.3002 40.5998 16.4002C40.5998 19.1002 40.5998 22.5002 39.4998 23.0002C39.3998 23.0002 39.2998 23.0002 39.0998 23.0002C38.9998 23.0002 38.8998 23.0002 38.7998 23.0002C37.6998 23.1002 36.4998 23.2002 35.5998 23.3002C34.7998 23.4002 34.1998 23.4002 34.1998 23.4002C28.7998 24.0002 25.7998 27.5002 24.1998 30.9002C24.0998 31.0002 24.0998 31.2002 23.9998 31.3002C22.5998 34.5002 22.2998 37.4002 22.2998 37.4002C22.2998 37.3002 22.3998 37.1002 22.4998 37.0002C22.3998 37.1002 22.3998 37.3002 22.2998 37.4002C22.2998 37.4002 22.2998 37.4002 22.2998 37.5002C23.1998 37.4002 24.0998 37.3002 25.0998 37.3002H40.4998C41.3998 37.3002 42.5998 38.1002 42.5998 38.9002L42.9998 41.0002C44.7998 71.7002 32.7998 77.9002 27.2998 79.1002C27.6998 79.2002 28.0998 79.2002 28.4998 79.3002C42.6998 78.0002 54.4998 68.6002 56.9998 56.5002C57.2998 54.8002 57.4998 53.2002 57.5998 51.5002V40.0002C57.5998 38.5002 58.7998 37.3002 60.2998 37.3002H72.9998C73.8998 37.3002 74.8998 37.4002 75.7998 37.5002C75.7998 37.5002 75.7998 37.5002 75.7998 37.4002C75.6998 37.3002 75.5998 37.1002 75.5998 37.0002ZM23.0998 35.5002C23.0998 35.6002 23.0998 35.6002 23.0998 35.7002C23.0998 35.7002 23.0998 35.6002 23.0998 35.5002C23.1998 35.0002 23.1998 34.5002 23.2998 34.0002C23.1998 34.5002 23.0998 35.0002 23.0998 35.5002ZM75.0998 35.5002C74.9998 35.0002 74.9998 34.5002 74.8998 34.0002C74.9998 34.5002 75.0998 35.0002 75.0998 35.5002C75.0998 35.6002 75.0998 35.6002 75.0998 35.7002C75.0998 35.7002 75.0998 35.6002 75.0998 35.5002Z" fill="url(#paint1_linear)"/>
</g>
<defs>
<linearGradient id="paint0_linear" x1="0" y1="50.203" x2="37.6447" y2="50.203" gradientUnits="userSpaceOnUse">
<stop stop-color="white"/>
<stop offset="1" stop-color="white"/>
</linearGradient>
<linearGradient id="paint1_linear" x1="30.0324" y1="4.2316" x2="60.2042" y2="78.9071" gradientUnits="userSpaceOnUse">
<stop stop-color="white"/>
<stop offset="1" stop-color="white"/>
</linearGradient>
<clipPath id="clip0">
<rect width="75.7" height="79.3" fill="white"/>
</clipPath>
</defs>
</svg>
