<svg width="11" height="9" viewBox="0 0 11 9" fill="none" xmlns="http://www.w3.org/2000/svg">
<path fill-rule="evenodd" clip-rule="evenodd" d="M5.18252 0.183617C5.24058 0.125413 5.30955 0.0792341 5.38548 0.047726C5.46141 0.016218 5.54281 0 5.62502 0C5.70723 0 5.78863 0.016218 5.86456 0.047726C5.94049 0.0792341 6.00946 0.125413 6.06752 0.183617L9.81752 3.93362C9.87572 3.99167 9.9219 4.06064 9.95341 4.13657C9.98492 4.21251 10.0011 4.29391 10.0011 4.37612C10.0011 4.45833 9.98492 4.53973 9.95341 4.61566C9.9219 4.69159 9.87572 4.76056 9.81752 4.81862L6.06752 8.56862C5.95016 8.68597 5.79099 8.75191 5.62502 8.75191C5.45905 8.75191 5.29988 8.68597 5.18252 8.56862C5.06516 8.45126 4.99923 8.29209 4.99923 8.12612C4.99923 7.96015 5.06516 7.80097 5.18252 7.68362L8.49127 4.37612L5.18252 1.06862C5.12431 1.01056 5.07814 0.94159 5.04663 0.865659C5.01512 0.789728 4.9989 0.708326 4.9989 0.626117C4.9989 0.543908 5.01512 0.462506 5.04663 0.386575C5.07814 0.310643 5.12431 0.241674 5.18252 0.183617Z" fill="black"/>
<path fill-rule="evenodd" clip-rule="evenodd" d="M0 4.37598C0 4.21022 0.0658481 4.05125 0.183058 3.93403C0.300269 3.81682 0.45924 3.75098 0.625 3.75098H8.75C8.91576 3.75098 9.07473 3.81682 9.19194 3.93403C9.30915 4.05125 9.375 4.21022 9.375 4.37598C9.375 4.54174 9.30915 4.70071 9.19194 4.81792C9.07473 4.93513 8.91576 5.00098 8.75 5.00098H0.625C0.45924 5.00098 0.300269 4.93513 0.183058 4.81792C0.0658481 4.70071 0 4.54174 0 4.37598Z" fill="black"/>
</svg>
