<svg width="125" height="108" viewBox="0 0 125 108" fill="none" xmlns="http://www.w3.org/2000/svg">
<path d="M109.963 72.6422C105.836 81.5421 103.773 85.992 101.185 89.0621C93.4219 98.274 80.9013 101.948 69.391 98.393C65.555 97.208 61.414 94.5789 53.132 89.3208L26.1641 72.1992C24.3693 71.0596 23.4718 70.4899 22.6951 69.9238C13.2344 63.0298 8.64784 51.2625 10.9476 39.7845C11.1364 38.8421 11.4116 37.8153 11.9618 35.7617V35.7617C12.6351 33.2491 12.9717 31.9928 13.3434 30.9312C17.9172 17.8665 30.8359 9.62728 44.6109 10.9896C45.7303 11.1003 47.0113 11.3249 49.5735 11.774L81.0376 17.2896C91.893 19.1925 97.3207 20.144 101.195 22.0626C112.865 27.8414 119.474 40.4886 117.555 53.3684C116.917 57.6448 114.599 62.6439 109.963 72.6422V72.6422Z" fill="#E0E0F8"/>
</svg>
