<svg width="135" height="125" viewBox="0 0 135 125" fill="none" xmlns="http://www.w3.org/2000/svg">
<path d="M114.254 42.1298C117.629 51.3412 119.316 55.9469 119.657 59.9472C120.682 71.9505 114.427 83.4022 103.774 89.0271C100.223 90.9017 95.4359 91.9708 85.8616 94.1089L54.6856 101.071C52.6107 101.535 51.5733 101.766 50.6237 101.915C39.0592 103.73 27.4953 98.6527 21.0053 88.9104C20.4725 88.1105 19.941 87.1899 18.8779 85.3486V85.3486C17.5773 83.0959 16.927 81.9696 16.4391 80.956C10.4352 68.4837 13.7441 53.5228 24.4478 44.7457C25.3176 44.0325 26.3822 43.2854 28.5115 41.7913L54.6601 23.4429C63.6816 17.1125 68.1924 13.9474 72.2888 12.5644C84.6266 8.39897 98.2427 12.6686 105.993 23.1331C108.566 26.6076 110.462 31.7817 114.254 42.1298V42.1298Z" fill="#E0F8E2"/>
</svg>
