<svg width="107" height="84" viewBox="0 0 107 84" fill="none" xmlns="http://www.w3.org/2000/svg">
<path d="M2.79286 36.1655C4.4757 26.5007 5.31712 21.6683 7.02167 18.0332C12.1362 7.12597 23.2792 0.336065 35.3175 0.791345C39.3295 0.943078 44.0099 2.4108 53.3706 5.34626L83.8509 14.9047C85.8795 15.5408 86.8939 15.8589 87.7907 16.2046C98.7133 20.4152 106.189 30.5944 106.938 42.2765C107 43.2356 107 44.2987 107 46.4247V46.4247C107 49.0259 107 50.3266 106.916 51.4483C105.879 65.2515 95.5331 76.5536 81.8749 78.803C80.765 78.9857 79.4695 79.1004 76.8784 79.3297L45.0588 82.1456C34.0808 83.1171 28.5918 83.6028 24.3527 82.7523C11.5851 80.1907 1.92806 69.6851 0.448363 56.7474C-0.0429308 52.4518 0.902333 47.023 2.79286 36.1655V36.1655Z" fill="#FFEFCD"/>
</svg>
