<svg width="50" height="41" viewBox="0 0 50 41" fill="none" xmlns="http://www.w3.org/2000/svg">
<path d="M43.7498 0H36.2498C32.8024 0 30 2.80518 30 6.2503V13.7503C30 17.195 32.8024 20.0002 36.2498 20.0002H43.7498C44.1774 20.0002 44.5949 19.9553 45 19.8724V25.0003C45 30.515 40.5148 35.0001 35.0002 35.0001H32.4998C31.1174 35.0001 30 36.1203 30 37.5C30 38.8802 31.1174 40.0003 32.4998 40.0003H35.0002C43.2724 40.0003 50.0002 33.2725 50.0002 25.0003V6.2503C50.0002 2.80518 47.1977 0 43.7498 0Z" fill="white"/>
<path d="M13.7498 0.000976562H6.24985C2.80243 0.000976562 0 2.80615 0 6.25128V13.7513C0 17.196 2.80243 20.0011 6.24985 20.0011H13.7498C14.1774 20.0011 14.5949 19.9563 15 19.8734V25.0013C15 30.516 10.5148 35.0011 5.00015 35.0011H2.49985C1.1174 35.0011 0 36.1213 0 37.501C0 38.8811 1.1174 40.0013 2.49985 40.0013H5.00015C13.2724 40.0013 20.0002 33.2735 20.0002 25.0013V6.25128C20.0002 2.80615 17.1977 0.000976562 13.7498 0.000976562Z" fill="white"/>
</svg>
