<svg width="50" height="50" viewBox="0 0 50 50" fill="none" xmlns="http://www.w3.org/2000/svg">
<g clip-path="url(#clip0)">
<path d="M43.7499 4.99902L36.2498 4.99902C32.8024 4.99902 30 7.8042 30 11.2493L30 18.7493C30 22.194 32.8024 24.9992 36.2498 24.9992L43.7499 24.9992C44.1774 24.9992 44.5949 24.9543 45 24.8715L45 29.9993C45 35.514 40.5148 39.9992 35.0002 39.9992L32.4998 39.9992C31.1174 39.9992 30 41.1193 30 42.499C30 43.8792 31.1174 44.9993 32.4998 44.9993L35.0002 44.9993C43.2724 44.9993 50.0002 38.2716 50.0002 29.9993L50.0002 11.2493C50.0002 7.8042 47.1977 4.99902 43.7499 4.99902Z" fill="#A09BFF"/>
<path d="M13.7498 5L6.24985 5C2.80243 5 0 7.80518 0 11.2503L0 18.7503C0 22.195 2.80243 25.0002 6.24985 25.0002L13.7498 25.0002C14.1774 25.0002 14.5949 24.9553 15 24.8724L15 30.0003C15 35.515 10.5148 40.0002 5.00015 40.0002L2.49985 40.0002C1.1174 40.0002 0 41.1203 0 42.5C0 43.8802 1.1174 45.0003 2.49985 45.0003L5.00015 45.0003C13.2724 45.0003 20.0002 38.2726 20.0002 30.0003L20.0002 11.2503C20.0002 7.80518 17.1977 5 13.7498 5Z" fill="#A09BFF"/>
</g>
<defs>
<clipPath id="clip0">
<rect width="50" height="50" fill="white" transform="translate(50 50) rotate(-180)"/>
</clipPath>
</defs>
</svg>
